<svg width="48" height="48" viewBox="0 0 48 48" fill="none" xmlns="http://www.w3.org/2000/svg">
<path d="M4.00002 24C4.00002 12.954 12.954 4 24 4C35.046 4 44 12.954 44 24C44 35.046 35.046 44 24 44H4.00002L9.85802 38.142C7.99809 36.2869 6.52309 34.0825 5.51778 31.6556C4.51247 29.2286 3.99667 26.6269 4.00002 24ZM13.656 40H24C27.1645 40 30.2579 39.0616 32.8891 37.3035C35.5203 35.5454 37.5711 33.0466 38.7821 30.1229C39.9931 27.1993 40.3099 23.9823 39.6926 20.8786C39.0752 17.7749 37.5514 14.9239 35.3137 12.6863C33.0761 10.4487 30.2252 8.9248 27.1215 8.30744C24.0178 7.69007 20.8007 8.00693 17.8771 9.21793C14.9535 10.4289 12.4546 12.4797 10.6965 15.1109C8.9384 17.7421 8.00002 20.8355 8.00002 24C8.00002 28.304 9.70202 32.33 12.686 35.314L15.514 38.142L13.656 40ZM16 26H32C32 28.1217 31.1572 30.1566 29.6569 31.6569C28.1566 33.1571 26.1217 34 24 34C21.8783 34 19.8435 33.1571 18.3432 31.6569C16.8429 30.1566 16 28.1217 16 26Z" fill="#246BFD"/>
</svg>
