<svg width="51" height="34" viewBox="0 0 51 34" fill="none" xmlns="http://www.w3.org/2000/svg">
<path d="M42.744 3.00585C41.7855 2.05291 40.6473 1.29697 39.3946 0.781212C38.142 0.265459 36.7993 0 35.4433 0C34.0874 0 32.7447 0.265459 31.492 0.781212C30.2393 1.29697 29.1012 2.05291 28.1426 3.00585L26.1532 4.98261L24.1638 3.00585C22.2275 1.08187 19.6014 0.000997262 16.8631 0.000997282C14.1248 0.000997303 11.4987 1.08187 9.56239 3.00585C7.62612 4.92982 6.53833 7.53929 6.53833 10.2602C6.53833 12.9811 7.62612 15.5906 9.56239 17.5145L11.5518 19.4913L26.1532 34L40.7546 19.4913L42.744 17.5145C43.7031 16.562 44.4638 15.4311 44.9829 14.1864C45.5019 12.9417 45.7691 11.6075 45.7691 10.2602C45.7691 8.91285 45.5019 7.5787 44.9829 6.33398C44.4638 5.08925 43.7031 3.95834 42.744 3.00585Z" fill="url(#paint0_linear_430_3337)"/>
<g filter="url(#filter0_b_430_3337)">
<path d="M21.25 24.8462C20.8774 24.8459 20.5114 24.7475 20.1887 24.561C19.8661 24.3745 19.5982 24.1065 19.4119 23.7838L15.7887 17.2708L13.4725 20.7451C13.2732 21.0325 13.0059 21.2663 12.6946 21.4257C12.3832 21.5851 12.0373 21.6652 11.6875 21.6588H2.125C1.56141 21.6588 1.02091 21.4349 0.622398 21.0364C0.223883 20.6379 0 20.0974 0 19.5339C0 18.9703 0.223883 18.4298 0.622398 18.0313C1.02091 17.6328 1.56141 17.4089 2.125 17.4089H10.5506L14.1737 11.9796C14.3762 11.6771 14.6529 11.4317 14.9774 11.2669C15.3019 11.102 15.6633 11.0233 16.027 11.0382C16.3907 11.0531 16.7444 11.1612 17.0544 11.3521C17.3643 11.543 17.6199 11.8103 17.7969 12.1284L21.25 18.4714L26.8069 8.90909C26.9968 8.58006 27.2714 8.30795 27.6021 8.12109C27.9329 7.93423 28.3077 7.83945 28.6875 7.84662C29.0583 7.84885 29.4221 7.9481 29.7427 8.13449C30.0633 8.32088 30.3296 8.58793 30.515 8.90909L35.6044 17.4089L37.7294 15.7302C38.106 15.4378 38.5701 15.2807 39.0469 15.2839H48.875C49.4386 15.2839 49.9791 15.5078 50.3776 15.9063C50.7761 16.3048 51 16.8453 51 17.4089C51 17.9725 50.7761 18.513 50.3776 18.9115C49.9791 19.31 49.4386 19.5339 48.875 19.5339H39.7906L36.3375 22.2644C36.0996 22.4601 35.8219 22.6018 35.5238 22.6795C35.2257 22.7573 34.9143 22.7693 34.6111 22.7147C34.3078 22.6601 34.0201 22.5403 33.7678 22.3635C33.5156 22.1866 33.3047 21.9571 33.15 21.6907L28.6875 14.1577L23.0881 23.7838C22.9018 24.1065 22.6339 24.3745 22.3113 24.561C21.9886 24.7475 21.6226 24.8459 21.25 24.8462Z" fill="white" fill-opacity="0.2"/>
</g>
<defs>
<filter id="filter0_b_430_3337" x="-11.9048" y="-4.05853" width="74.8095" height="40.8095" filterUnits="userSpaceOnUse" color-interpolation-filters="sRGB">
<feFlood flood-opacity="0" result="BackgroundImageFix"/>
<feGaussianBlur in="BackgroundImageFix" stdDeviation="5.95238"/>
<feComposite in2="SourceAlpha" operator="in" result="effect1_backgroundBlur_430_3337"/>
<feBlend mode="normal" in="SourceGraphic" in2="effect1_backgroundBlur_430_3337" result="shape"/>
</filter>
<linearGradient id="paint0_linear_430_3337" x1="6.53833" y1="15.8667" x2="44.8286" y2="16.0638" gradientUnits="userSpaceOnUse">
<stop stop-color="#262BC6"/>
<stop offset="1" stop-color="#246BFD"/>
</linearGradient>
</defs>
</svg>
