<svg width="25" height="24" viewBox="0 0 25 24" fill="none" xmlns="http://www.w3.org/2000/svg">
<g clip-path="url(#clip0_2569_2624)">
<path d="M21.25 20C21.25 20.2652 21.1446 20.5196 20.9571 20.7071C20.7696 20.8947 20.5152 21 20.25 21H4.25C3.98478 21 3.73043 20.8947 3.54289 20.7071C3.35536 20.5196 3.25 20.2652 3.25 20V9.49003C3.24989 9.33764 3.28462 9.18724 3.35152 9.05033C3.41841 8.91341 3.51572 8.79359 3.636 8.70003L11.636 2.47803C11.8115 2.34147 12.0276 2.26733 12.25 2.26733C12.4724 2.26733 12.6885 2.34147 12.864 2.47803L20.864 8.70003C20.9843 8.79359 21.0816 8.91341 21.1485 9.05033C21.2154 9.18724 21.2501 9.33764 21.25 9.49003V20ZM19.25 19V9.97803L12.25 4.53403L5.25 9.97803V19H19.25Z" fill="white"/>
</g>
<defs>
<clipPath id="clip0_2569_2624">
<rect width="24" height="24" fill="white" transform="translate(0.25)"/>
</clipPath>
</defs>
</svg>
