<svg width="25" height="25" viewBox="0 0 25 25" fill="none" xmlns="http://www.w3.org/2000/svg">
<g clip-path="url(#clip0_430_3215)">
<path d="M18 2V4H21C21.552 4 22 4.448 22 5V21C22 21.552 21.552 22 21 22H5C4.448 22 4 21.552 4 21V5C4 4.448 4.448 4 5 4H8V2H18ZM8 6H6V20H20V6H18V8H8V6ZM14 11V13H16V15H13.999L14 17H12L11.999 15H10V13H12V11H14ZM16 4H10V6H16V4Z" fill="white"/>
</g>
<defs>
<clipPath id="clip0_430_3215">
<rect width="24" height="24" fill="white" transform="translate(1)"/>
</clipPath>
</defs>
</svg>
