<svg width="336" height="246" viewBox="0 0 336 246" fill="none" xmlns="http://www.w3.org/2000/svg">
<path opacity="0.1" d="M112.277 245.16C128.599 245.16 141.83 242.965 141.83 240.256C141.83 237.547 128.599 235.351 112.277 235.351C95.956 235.351 82.7248 237.547 82.7248 240.256C82.7248 242.965 95.956 245.16 112.277 245.16Z" fill="#006D77"/>
<path opacity="0.1" d="M272.922 245.298C293.288 245.298 309.799 243.102 309.799 240.394C309.799 237.685 293.288 235.489 272.922 235.489C252.555 235.489 236.044 237.685 236.044 240.394C236.044 243.102 252.555 245.298 272.922 245.298Z" fill="#006D77"/>
<path opacity="0.1" d="M5.05199 105.987H35.833V149.338H7.30544C7.22962 149.783 7.15683 150.231 7.07797 150.679H35.833V185.64C35.7814 185.624 35.7359 185.605 35.6874 185.587C34.8746 185.254 34.0678 184.903 33.2611 184.527L32.7455 184.286C31.9367 183.891 31.1279 183.473 30.3192 183.032C30.0371 182.879 29.755 182.719 29.476 182.556C24.986 179.957 20.9071 176.664 17.3808 172.791C17.2776 172.688 17.1806 172.578 17.0775 172.478C16.5861 171.926 16.1039 171.368 15.6368 170.798L15.1212 170.171C14.5693 169.472 14.0355 168.755 13.5168 168.028C13.441 167.921 13.3682 167.815 13.2894 167.714C11.1801 164.692 9.42878 161.42 8.07277 157.968C8.03031 157.865 7.99391 157.752 7.95448 157.655C7.53796 156.547 7.16896 155.43 6.84747 154.302C6.70796 153.828 6.57451 153.361 6.45926 152.869C6.4168 152.725 6.3804 152.584 6.34704 152.443C4.62435 145.496 4.42114 138.278 4.42114 131.111C4.42114 130.275 4.42114 129.435 4.42114 128.604C4.42114 125.705 4.4545 122.788 4.50303 119.873C4.50303 119.118 4.53336 118.366 4.54852 117.608C4.59099 115.684 4.65164 113.759 4.7305 111.835C4.7487 111.299 4.77296 110.767 4.80026 110.234C4.80026 109.927 4.81542 109.62 4.84575 109.312C4.91854 108.197 4.9792 107.091 5.05199 105.987Z" fill="#006D77"/>
<path opacity="0.1" d="M36.358 57.5159H19.4738C22.2184 53.0771 25.2173 48.8116 28.4543 44.7424C30.9625 41.5585 33.6102 38.456 36.358 35.4663V57.5159Z" fill="white"/>
<path opacity="0.1" d="M35.833 59.0616V104.646H5.14902C5.14902 104.515 5.17025 104.38 5.17935 104.248C5.20664 103.888 5.23394 103.527 5.26427 103.17C5.29763 102.75 5.33402 102.327 5.37345 101.917C5.41288 101.506 5.45534 101.005 5.50083 100.55C5.54633 100.096 5.58879 99.6352 5.64035 99.1808C5.69191 98.7264 5.7374 98.272 5.79199 97.8207C5.84659 97.3694 5.89511 96.9119 5.95274 96.4606C5.99823 96.0846 6.04676 95.7117 6.09528 95.3356C6.16504 94.806 6.23783 94.2732 6.31669 93.7467C6.31669 93.6684 6.33792 93.5869 6.35005 93.5117C6.90361 89.6576 7.65788 85.8372 8.60957 82.067C9.60575 78.1121 10.8778 74.2369 12.4159 70.4719C14.0505 66.5332 15.9644 62.7247 18.142 59.0773L35.833 59.0616Z" fill="white"/>
<path opacity="0.1" d="M43.1817 105.985V149.338H108.926V105.985H43.1817ZM43.1817 150.676V187.906C43.5578 187.987 43.9309 188.066 44.3009 188.131C44.8043 188.232 45.3048 188.322 45.8173 188.401C45.9144 188.417 46.0145 188.432 46.1206 188.442C46.3208 188.476 46.527 188.504 46.7272 188.532C47.2337 188.605 47.7372 188.664 48.2437 188.711C48.4833 188.736 48.7259 188.758 48.9685 188.777L49.5539 188.824C49.8723 188.849 50.1878 188.868 50.5001 188.877C50.6942 188.877 50.8884 188.896 51.0885 188.902C51.2402 188.902 51.3918 188.902 51.5495 188.902C51.7072 188.902 51.9317 188.902 52.1227 188.902C52.3836 188.902 52.6444 188.902 52.9022 188.902H53.251C53.5118 188.902 53.7727 188.902 54.0305 188.877H54.0486C54.2276 188.877 54.4096 188.877 54.5915 188.852C54.642 188.855 54.6927 188.855 54.7432 188.852C54.8948 188.852 55.0465 188.852 55.1921 188.83H55.2982L56.3142 188.749C56.6479 188.717 56.9845 188.677 57.3242 188.639L58.0157 188.554C60.829 188.147 63.611 187.536 66.341 186.724C72.4736 184.957 78.4727 182.484 84.6022 180.673C92.5272 178.338 101.283 177.191 108.941 180.046V150.676H43.1817ZM108.926 57.7207V0.00518603C101.728 -0.0753918 94.5499 0.794494 87.5653 2.59372C70.9177 6.91525 55.9806 16.2885 43.1817 28.2597V57.7176H46.4815V59.0557H43.1817V104.646H108.926V59.0588H60.0295V57.7207H108.926ZM193.371 38.2252C189.253 38.0748 185.158 36.7272 181.455 34.6464C174.373 30.6664 168.717 24.521 162.396 19.3346C149.264 8.5323 132.977 2.01396 116.269 0.396913V57.7207H210.122L210.356 57.4669L193.371 38.2252ZM201.921 36.6583L210.987 46.9372V33.9632C207.951 34.3518 205.291 35.2763 201.933 36.6458L201.921 36.6583ZM210.987 197.15V150.676H191.67C191.618 150.479 191.567 150.278 191.506 150.077C191.564 150.278 191.612 150.479 191.667 150.676H116.281V184.286C116.997 184.835 117.703 185.411 118.404 185.997C119.159 186.624 119.905 187.285 120.654 187.934L121.41 188.579C121.77 188.893 122.134 189.206 122.501 189.501C123.229 190.111 123.964 190.713 124.706 191.306C125.073 191.619 125.449 191.901 125.822 192.196C131.745 196.875 137.992 201.097 144.514 204.828C145.976 205.664 147.451 206.48 148.939 207.276C149.931 207.799 150.929 208.319 151.93 208.824C153.434 209.582 154.951 210.314 156.479 211.018C170.572 217.554 185.474 222.04 200.76 224.346C204.154 224.864 207.562 225.271 210.984 225.568V197.147H211.287L210.987 197.15ZM116.281 59.0588V104.646H210.999V59.0588H116.281ZM116.281 105.985V149.338H210.999V105.985H116.281ZM218.35 33.9068V48.3788L229.921 35.2606C226.087 34.6213 222.231 34.1648 218.35 33.8911V33.9068ZM218.35 106V149.338H310.475V105.985L218.35 106ZM310.138 200.591L310.463 150.676H218.35V226.066C224.284 226.324 230.227 226.251 236.154 225.847H236.257C239.087 225.663 241.905 225.396 244.709 225.045H244.773C259.735 223.245 274.364 219.212 288.204 213.07L310.138 200.591ZM328.239 113.123C327.893 112.28 327.532 111.444 327.165 110.616C326.48 109.049 325.755 107.526 325.009 106.003H317.821V149.338H335.994C335.985 137.066 332.979 124.531 328.248 113.108L328.239 113.123ZM317.821 150.692V193.625C322.94 188.554 327.265 182.754 330.38 176.123C334.126 168.138 335.839 159.491 335.979 150.685L317.821 150.692ZM317.821 93.3679V104.65H324.336C322.365 100.766 320.193 96.9947 317.83 93.3522L317.821 93.3679ZM255.343 42.412C254.864 42.224 254.384 42.0328 253.902 41.8479C248.816 39.9072 243.619 38.2934 238.34 37.0156L220.634 57.0939L220.295 57.4669L220.522 57.7238H283.54C274.763 51.4814 265.301 46.3363 255.352 42.3963L255.343 42.412ZM285.387 59.0745H219.642L218.35 60.2967V104.646H229.675H229.694H310.487V83.1641C303.179 74.0309 294.743 65.9268 285.396 59.0588L285.387 59.0745Z" fill="white"/>
<path opacity="0.1" d="M35.833 82.0545V104.646H5.14902C5.14902 104.515 5.17025 104.38 5.17935 104.248C5.20664 103.888 5.23394 103.527 5.26427 103.17C5.29763 102.75 5.33402 102.327 5.37345 101.917C5.41288 101.506 5.45534 101.005 5.50083 100.55C5.54633 100.096 5.58879 99.6352 5.64035 99.1808C5.69191 98.7264 5.7374 98.272 5.79199 97.8207C5.84659 97.3695 5.89511 96.9119 5.95274 96.4607C5.99823 96.0846 6.04676 95.7117 6.09528 95.3356C6.16504 94.806 6.23783 94.2733 6.31669 93.7468C6.31669 93.6684 6.33792 93.587 6.35005 93.5117C6.90361 89.6577 7.65788 85.8372 8.60957 82.067L35.833 82.0545Z" fill="white"/>
<path opacity="0.1" d="M5.05199 105.987H35.833V149.338H7.30544C7.22962 149.783 7.15683 150.231 7.07797 150.679H35.833V185.64C35.7814 185.624 35.7359 185.605 35.6874 185.587C34.8746 185.254 34.0678 184.903 33.2611 184.527L32.7455 184.286C31.9367 183.891 31.1279 183.473 30.3192 183.032C30.0371 182.879 29.755 182.719 29.476 182.556C24.986 179.957 20.9071 176.664 17.3808 172.791C17.2776 172.688 17.1806 172.578 17.0775 172.478C16.5861 171.926 16.1039 171.368 15.6368 170.798L15.1212 170.171C14.5693 169.472 14.0355 168.755 13.5168 168.028C13.441 167.921 13.3682 167.815 13.2894 167.714C11.1801 164.692 9.42878 161.42 8.07277 157.968C8.03031 157.865 7.99391 157.752 7.95448 157.655C7.53796 156.547 7.16896 155.43 6.84747 154.302C6.70796 153.828 6.57451 153.361 6.45926 152.869C6.4168 152.725 6.3804 152.584 6.34704 152.443C4.62435 145.496 4.42114 138.278 4.42114 131.111C4.42114 130.275 4.42114 129.435 4.42114 128.604C4.42114 125.705 4.4545 122.788 4.50303 119.873C4.50303 119.118 4.53336 118.366 4.54852 117.608C4.59099 115.684 4.65164 113.759 4.7305 111.835C4.7487 111.299 4.77296 110.767 4.80026 110.234C4.80026 109.927 4.81542 109.62 4.84575 109.312C4.91854 108.197 4.9792 107.091 5.05199 105.987Z" fill="white"/>
<path opacity="0.1" d="M66.3259 65.5863V104.646H43.1817V65.5863H46.4815V52.3616H60.0265V65.5863H66.3259Z" fill="#006D77"/>
<path opacity="0.1" d="M66.3258 105.984H43.1848V149.334H66.3258V105.984Z" fill="#006D77"/>
<path opacity="0.1" d="M43.1817 150.679H66.3259V186.718C63.5958 187.528 60.8138 188.139 58.0005 188.545L57.309 188.632C56.9693 188.673 56.6327 188.708 56.2991 188.742C55.9654 188.777 55.6197 188.802 55.283 188.824H55.1769C55.0313 188.824 54.8736 188.842 54.7311 188.846H54.5764C54.3944 188.846 54.2124 188.864 54.0304 188.871C53.7727 188.886 53.5149 188.889 53.251 188.893C53.1388 188.893 53.0326 188.893 52.9204 188.893C52.6596 188.893 52.4018 188.893 52.1409 188.893H51.5677C51.413 188.893 51.2644 188.893 51.1037 188.893L50.5183 188.871C50.215 188.871 49.8875 188.836 49.5721 188.814L48.9898 188.77L48.2649 188.701C47.7554 188.654 47.2489 188.595 46.7484 188.523L46.1418 188.435L45.8386 188.391C45.3321 188.31 44.8316 188.222 44.3221 188.122C43.9491 188.056 43.579 187.974 43.203 187.896L43.1817 150.679Z" fill="#006D77"/>
<path opacity="0.1" d="M210.999 60.9733H191.916V104.643H210.999V60.9733Z" fill="#006D77"/>
<path opacity="0.1" d="M211.002 105.984V149.338H116.281V130.638H166.733V141.669H191.916V105.984H211.002Z" fill="#006D77"/>
<path opacity="0.1" d="M211.302 197.16H210.999V225.599C207.582 225.3 204.175 224.894 200.778 224.38C185.485 222.067 170.576 217.572 156.479 211.024C152.409 209.131 148.422 207.065 144.517 204.825C137.995 201.092 131.747 196.869 125.822 192.193C124.334 191.014 122.865 189.809 121.416 188.576C120.412 187.721 119.414 186.843 118.404 185.991C117.703 185.405 116.997 184.828 116.281 184.277V150.679H191.664C191.612 150.478 191.561 150.278 191.506 150.08C191.564 150.278 191.618 150.478 191.67 150.679H210.999V197.141C211.102 197.144 211.202 197.153 211.302 197.16Z" fill="white"/>
<path opacity="0.1" d="M260.769 57.7204H248.334V53.7279H253.908V41.835C254.392 42.0168 254.873 42.2038 255.352 42.396V53.7279H260.769V57.7204Z" fill="#006D77"/>
<path opacity="0.1" d="M290.728 104.646H229.681C229.681 104.646 229.681 104.646 229.703 104.662L229.675 104.646H218.35V60.9764H221.559V93.2547H236.223V74.1385H248.337V59.0616H260.772V74.151H272.885V93.2673H290.728V104.646Z" fill="#006D77"/>
<path opacity="0.1" d="M218.35 105.984V149.338H290.728V105.984H218.35ZM310.375 200.369L310.475 166.053H290.728V150.698H218.35V226.066C224.284 226.324 230.227 226.25 236.154 225.847H236.257C239.087 225.663 241.905 225.395 244.709 225.044H244.773C259.735 223.245 274.364 219.212 288.204 213.07" fill="#006D77"/>
<path opacity="0.1" d="M319.107 150.679H335.991C335.842 159.482 334.132 168.128 330.389 176.113C327.274 182.747 322.946 188.548 317.833 193.615V166.038H319.107V150.679Z" fill="#006D77"/>
<path opacity="0.1" d="M336 149.338H319.107V113.108H328.248C332.979 124.53 335.985 137.066 336 149.338Z" fill="#006D77"/>
<path opacity="0.1" d="M211.002 73.1138H200.778V86.8054H211.002V73.1138Z" fill="#006D77"/>
<path opacity="0.1" d="M211.002 101.494H200.778V104.646H211.002V101.494Z" fill="#006D77"/>
<path opacity="0.1" d="M211.002 105.984H200.778V115.182H211.002V105.984Z" fill="#006D77"/>
<path opacity="0.1" d="M211.002 129.873H200.778V143.565H211.002V129.873Z" fill="#006D77"/>
<path opacity="0.1" d="M211.002 158.253H200.778V171.945H211.002V158.253Z" fill="#006D77"/>
<path opacity="0.1" d="M210.999 197.141C211.102 197.141 211.202 197.141 211.302 197.16H210.999V200.341H200.778V186.633H210.999V197.141Z" fill="#006D77"/>
<path opacity="0.1" d="M210.999 215.007V225.583C207.582 225.285 204.175 224.878 200.778 224.364V215.007H210.999Z" fill="#006D77"/>
<path opacity="0.1" d="M160.097 148.332H116.281V149.338H160.097V148.332Z" fill="#006D77"/>
<path opacity="0.1" d="M160.097 150.676H116.281V154.53H160.097V150.676Z" fill="#006D77"/>
<path opacity="0.1" d="M160.097 167.166H116.281V173.365H160.097V167.166Z" fill="#006D77"/>
<path opacity="0.1" d="M160.094 186V192.199H125.822C124.334 191.025 122.864 189.819 121.413 188.582C120.409 187.727 119.414 186.849 118.401 186H160.094Z" fill="#006D77"/>
<path opacity="0.1" d="M160.094 204.831V211.024H156.476C152.41 209.129 148.424 207.062 144.517 204.822L160.094 204.831Z" fill="#006D77"/>
<path opacity="0.1" d="M244.782 110.187H236.157V119.099H244.782V110.187Z" fill="#006D77"/>
<path opacity="0.1" d="M58.0217 68.6606H49.3961V77.5732H58.0217V68.6606Z" fill="#006D77"/>
<path opacity="0.1" d="M58.0217 89.3625H49.3961V98.2751H58.0217V89.3625Z" fill="#006D77"/>
<path opacity="0.1" d="M58.0217 110.065H49.3961V118.977H58.0217V110.065Z" fill="#006D77"/>
<path opacity="0.1" d="M58.0217 130.763H49.3961V139.676H58.0217V130.763Z" fill="#006D77"/>
<path opacity="0.1" d="M58.0217 151.465H49.3961V160.378H58.0217V151.465Z" fill="#006D77"/>
<path opacity="0.1" d="M58.0217 172.167H49.3961V181.08H58.0217V172.167Z" fill="#006D77"/>
<path opacity="0.1" d="M277.711 110.187H269.085V119.099H277.711V110.187Z" fill="#006D77"/>
<path opacity="0.1" d="M244.782 132.171H236.157V141.083H244.782V132.171Z" fill="#006D77"/>
<path opacity="0.1" d="M277.711 132.171H269.085V141.083H277.711V132.171Z" fill="#006D77"/>
<path opacity="0.1" d="M244.782 154.151H236.157V163.064H244.782V154.151Z" fill="#006D77"/>
<path opacity="0.1" d="M277.711 154.151H269.085V163.064H277.711V154.151Z" fill="#006D77"/>
<path opacity="0.1" d="M244.782 176.135H236.157V185.047H244.782V176.135Z" fill="#006D77"/>
<path opacity="0.1" d="M277.711 176.135H269.085V185.047H277.711V176.135Z" fill="#006D77"/>
<path opacity="0.1" d="M244.782 198.119H236.157V207.031H244.782V198.119Z" fill="#006D77"/>
<path opacity="0.1" d="M277.711 198.119H269.085V207.031H277.711V198.119Z" fill="#006D77"/>
<path opacity="0.1" d="M236.157 225.847V220.099H244.779V225.029L236.157 225.847Z" fill="#006D77"/>
<path opacity="0.1" d="M6.44104 152.863C6.55932 153.343 6.69277 153.822 6.83228 154.295V153.183H9.25861V157.639H7.96053C7.99995 157.743 8.03938 157.855 8.07881 157.953H35.833V152.863H6.44104ZM12.2036 157.639H9.77724V153.183H12.2036V157.639ZM15.1364 157.639H12.7101V153.183H15.1364V157.639ZM18.0753 157.639H15.6429V153.183H18.0692L18.0753 157.639ZM21.0111 157.639H18.5848V153.183H21.0111V157.639ZM23.95 157.639H21.5237V153.183H23.95V157.639ZM26.8889 157.639H24.4626V153.183H26.8889V157.639ZM29.8248 157.639H27.3984V153.183H29.8248V157.639ZM32.7606 157.639H30.3343V153.183H32.7606V157.639ZM35.6965 157.639H33.2701V153.183H35.6965V157.639Z" fill="#006D77"/>
<path opacity="0.1" d="M13.2954 167.705C13.3712 167.805 13.444 167.918 13.5229 168.018H15.1273V170.159C15.3002 170.372 15.47 170.585 15.6459 170.785V168.006H18.0722V172.478H17.0896C17.1866 172.581 17.2807 172.691 17.3929 172.791H35.8421V167.705H13.2954ZM21.002 172.478H18.5757V168.025H21.002V172.478ZM23.9409 172.478H21.5146V168.025H23.9409V172.478ZM26.8798 172.478H24.4535V168.025H26.8798V172.478ZM29.8157 172.478H27.3893V168.025H29.8157V172.478ZM32.7515 172.478H30.3252V168.025H32.7515V172.478ZM35.6874 172.478H33.261V168.025H35.6874V172.478Z" fill="#006D77"/>
<path opacity="0.1" d="M29.4881 182.544C29.7641 182.706 30.0462 182.857 30.3313 183.02V182.863H32.7576V184.273L33.2732 184.521V182.863H35.6995V185.574C35.7461 185.598 35.7948 185.617 35.8451 185.63V182.544H29.4881Z" fill="#006D77"/>
<path opacity="0.1" d="M229.681 104.646H229.7H229.681ZM210.999 197.138H211.302H210.999ZM191.506 150.077C191.564 150.278 191.612 150.478 191.667 150.676C191.618 150.478 191.567 150.278 191.506 150.077ZM229.681 104.637H229.7H229.681ZM46.4937 57.711V59.0491H60.0417V57.711H46.4937ZM210.999 197.138H211.302H210.999ZM191.506 150.077C191.564 150.278 191.612 150.478 191.667 150.676C191.618 150.478 191.567 150.278 191.506 150.077ZM229.681 104.637H229.7H229.681ZM210.999 197.128H211.302H210.999ZM191.506 150.077C191.564 150.278 191.612 150.478 191.667 150.676C191.618 150.478 191.567 150.278 191.506 150.077Z" fill="#006D77"/>
<path d="M140.854 118.983C140.854 118.983 139.659 118.811 139.659 117.012C139.659 115.213 138.803 111.854 138.803 111.854C138.803 111.838 138.063 106.003 137.041 105.076C136.019 104.148 134.706 98.7013 134.706 98.7013C134.706 98.7013 134.481 95.7461 134.023 95.11C133.565 94.4738 132.947 92.9163 132.034 90.6944C131.121 88.4725 127.315 86.9338 127.315 86.9338C127.315 86.9338 120.433 82.8097 118.483 81.4653C118.306 81.3549 118.14 81.2257 117.988 81.0799C117.649 80.6192 116.169 80.6098 116.169 80.6098C116.014 79.6007 115.865 78.4412 115.817 77.3914C115.817 77.2785 115.817 77.1657 115.802 77.0529C117.976 75.7247 119.614 73.6306 120.415 71.1551C120.451 71.036 120.481 70.9106 120.515 70.7915C120.645 70.7472 120.765 70.6752 120.867 70.5803C120.969 70.4853 121.05 70.3694 121.106 70.24C121.282 69.8357 121.285 69.3625 121.504 68.9865C121.758 68.5415 122.244 68.3033 122.626 67.968C123.59 67.1218 123.839 65.6959 123.793 64.3985C123.763 63.3487 123.599 62.2895 123.663 61.2459L123.681 60.9827C123.699 60.826 123.721 60.6693 123.748 60.5189C123.897 59.7417 124.221 59.0084 124.403 58.2375C124.585 57.4665 124.603 56.5985 124.179 55.9341C123.557 54.9595 122.262 54.7652 121.124 54.6649C119.835 54.5521 118.683 54.6994 117.858 53.5931C117.472 53.015 117.038 52.4728 116.56 51.973C116.39 51.81 114.74 50.7696 114.74 50.7006C113.13 49.93 111.305 49.7854 109.599 50.2932C108.744 50.5502 107.937 50.9701 107.07 51.1801C105.199 51.6376 103.045 51.1425 101.456 52.2487C100.57 52.8755 100.04 53.8721 99.5423 54.8435C99.1379 55.6437 98.7274 56.4428 98.3109 57.2409C97.6407 58.554 96.9582 59.889 96.6762 61.3431C96.6169 61.6595 96.5804 61.98 96.567 62.302V62.3177C96.567 62.4336 96.567 62.5496 96.567 62.6655V62.8128C96.567 62.9225 96.567 63.0291 96.5852 63.1262C96.6034 63.2234 96.6004 63.2547 96.6095 63.3205C96.6186 63.3863 96.6337 63.5336 96.6519 63.6339C96.6701 63.7342 96.7065 63.9097 96.7429 64.0476C96.7581 64.1071 96.7793 64.1635 96.7975 64.2199C96.8278 64.3265 96.8642 64.4299 96.9037 64.5333C96.9249 64.5866 96.9461 64.643 96.9704 64.6963C97.0159 64.8059 97.0705 64.9125 97.1251 65.0096C97.1493 65.0535 97.1675 65.0943 97.1918 65.135C97.2764 65.2807 97.3696 65.421 97.4708 65.5549C98.1198 66.3917 99.0752 66.9244 99.7819 67.7079C99.7819 67.7392 99.7819 67.7705 99.7819 67.7987C99.7819 67.8865 99.7819 67.9711 99.7819 68.0588C99.8194 69.8061 100.269 71.5175 101.093 73.044C101.917 74.5706 103.089 75.8661 104.507 76.8179C104.507 76.937 104.522 77.0592 104.528 77.1783C104.588 78.1085 104.576 79.0421 104.495 79.9705C104.372 79.8202 104.217 79.7005 104.043 79.6202C103.868 79.5399 103.679 79.5011 103.488 79.5067C103.358 79.5001 103.227 79.5117 103.1 79.5412L103.073 79.5192V79.5474C102.405 79.7166 101.583 80.4343 100.798 82.4744C100.798 82.4744 98.408 85.2572 96.5882 85.1413C94.7685 85.0253 90.1615 88.0369 90.1615 88.0369C90.1615 88.0369 85.6667 91.0517 84.7023 94.1228C84.1632 95.8643 83.5169 97.5684 82.7673 99.2247L77.211 111.055L76.1859 120.441C76.1859 120.441 76.753 124.615 76.6408 125.251C76.5286 125.887 78.9731 131.625 78.9731 131.625C78.9731 131.625 87.0497 146.288 90.3495 147.04L90.5861 146.868C90.7273 146.944 90.877 147.002 91.0319 147.04L91.7113 146.545C91.7521 147.097 91.7348 147.652 91.6598 148.2C91.2048 149.648 91.8296 159.096 92.6242 160.948C93.4188 162.8 93.1368 187.084 93.1368 187.084L93.0246 189.228C93.0246 189.228 93.0246 189.297 93.0519 189.416L93.0246 189.924L93.1065 189.967C93.1915 190.647 93.1638 191.337 93.0246 192.008C92.7395 192.948 92.6242 195.605 92.6242 195.605C92.6242 195.605 90.3526 210.61 91.4293 213.625C92.5059 216.639 93.4219 219.942 93.4219 219.942C93.4219 219.942 94.5592 223.703 93.4765 224.345C92.3937 224.988 89.3153 226.066 89.9492 227.633C90.5254 229.081 92.7122 232.96 93.0367 233.528L93.0094 233.825L92.5636 238.817C92.6358 239.477 92.8088 240.12 93.0761 240.723C93.5644 241.81 94.5137 242.938 96.3183 242.816C96.6216 242.794 96.9734 242.757 97.3131 242.71C100.616 242.252 104.683 240.729 104.683 240.729C104.472 240.59 104.278 240.425 104.107 240.237C103.944 240.075 103.816 239.88 103.729 239.664C103.642 239.449 103.598 239.217 103.6 238.984C103.649 238.075 102.002 233.744 101.593 232.678C101.529 232.525 101.495 232.437 101.495 232.437C101.495 232.437 105.25 228.382 104.625 224.787C104.625 224.787 100.47 222.28 101.838 220.905C103.206 219.529 105.651 215.577 105.651 215.577C105.651 215.577 105.763 200.801 105.651 198.595C105.534 197.064 105.604 195.523 105.86 194.01C105.905 193.781 105.96 193.559 106.018 193.339C107.909 193.631 109.819 193.781 111.732 193.788C112.429 193.788 113.139 193.788 113.855 193.744C113.855 193.953 113.864 194.178 113.882 194.421C114.04 198.081 114.334 204.499 114.573 206.884C114.913 210.303 116.79 219.516 116.79 219.516C116.79 219.516 113.209 221.892 117.415 227.746C117.415 227.746 117.415 229.867 117.136 230.174C116.838 231.178 116.598 232.2 116.417 233.233C116.241 234.336 116.169 235.452 116.454 236.031C117.136 237.417 121.231 237.304 121.231 237.304L121.331 237.285C122.104 237.202 122.885 237.279 123.629 237.511C124.373 237.743 125.065 238.125 125.665 238.636C127.221 239.927 133.126 239.36 136.322 238.949C137.575 238.786 138.412 238.636 138.412 238.636C138.453 238.489 138.467 238.336 138.455 238.184C138.421 237.373 137.805 235.593 133.632 234.004C133.632 234.004 129.708 231.277 129.762 228.902H129.68H129.225C129.556 228.883 129.768 228.902 129.768 228.902C129.768 228.902 128.231 223.104 128.858 222.634C129.486 222.164 127.606 215.74 127.606 215.74C127.606 215.74 126.529 204.96 126.471 204.204C126.474 203.556 126.569 202.912 126.754 202.293L126.471 196.382C126.471 196.382 126.417 194.417 126.471 193.778C126.462 193.223 126.419 192.67 126.341 192.12C126.314 191.901 126.286 191.672 126.256 191.447C127.727 191.061 128.682 190.704 128.682 190.704L128.513 170.13C129.762 167.623 129.993 162.124 129.987 158.222C129.987 155.715 129.877 153.86 129.877 153.86L131.585 150.98C131.585 150.98 131.979 147.532 131.354 146.777C131.078 146.436 131.203 146.082 131.43 145.79C131.548 145.693 131.673 145.605 131.803 145.527C131.803 145.527 131.785 145.499 131.764 145.458C131.883 145.355 132.01 145.262 132.143 145.179C132.143 145.179 131.536 144.207 132.079 143.797C132.589 144.154 133.044 144.424 133.39 144.643C133.365 144.872 133.341 145.003 133.341 145.003L133.487 144.69C133.82 144.884 134.023 145.003 134.023 145.003C134.023 145.003 136.698 139.497 136.641 138.686C136.583 137.874 138.461 134.455 138.461 134.455C138.461 134.455 138.688 132.659 139.713 131.907C140.738 131.155 140.508 125.705 140.508 125.705C140.508 125.705 140.793 122.866 141.475 121.707C142.158 120.547 140.854 118.983 140.854 118.983ZM89.6702 116.567L89.7217 117.88C89.4184 117.376 89.2001 117.012 89.2001 117.012L89.6702 116.567Z" fill="url(#paint0_linear_365_3570)"/>
<path d="M134.169 142.625L133.514 145.508C133.514 145.508 128.267 142.741 127.321 139.225C126.374 135.709 128.904 134.374 128.904 134.374L133.793 136.514L134.169 142.625Z" fill="white"/>
<path opacity="0.1" d="M134.169 142.625L133.514 145.508C133.514 145.508 128.267 142.741 127.321 139.225C126.374 135.709 128.904 134.374 128.904 134.374L133.793 136.514L134.169 142.625Z" fill="black"/>
<path d="M104.722 240.748C104.722 240.748 99.8698 242.591 96.5336 242.823C94.7624 242.945 93.8313 241.823 93.3521 240.742C93.0903 240.141 92.9215 239.501 92.8517 238.846L93.2854 233.879L93.5159 231.234L100.604 229.331L101.608 232.503L101.702 232.744C102.105 233.803 103.722 238.112 103.673 239.012C103.671 239.242 103.714 239.47 103.8 239.683C103.885 239.896 104.011 240.089 104.171 240.25C104.333 240.439 104.519 240.607 104.722 240.748Z" fill="#1D2366"/>
<path d="M137.869 238.222C137.881 238.373 137.867 238.525 137.827 238.67C137.827 238.67 127.448 240.46 125.325 238.67C124.726 238.148 124.029 237.76 123.277 237.532C122.525 237.304 121.735 237.242 120.958 237.348C120.958 237.348 116.942 237.461 116.272 236.094C115.993 235.521 116.066 234.408 116.238 233.311C116.415 232.284 116.65 231.268 116.942 230.268L117.103 230.137L118.058 229.344L129.244 229.002H129.328C129.274 231.365 133.126 234.076 133.126 234.076C137.217 235.643 137.821 237.414 137.869 238.222Z" fill="#1D2366"/>
<path opacity="0.1" d="M137.869 238.222C137.88 238.373 137.864 238.525 137.824 238.67C137.824 238.67 127.448 240.46 125.325 238.67C124.727 238.148 124.03 237.76 123.278 237.533C122.526 237.305 121.737 237.242 120.961 237.348C120.961 237.348 116.942 237.461 116.275 236.094C115.996 235.518 116.066 234.408 116.238 233.311C117.785 233.471 120.227 233.869 121.185 234.819C122.635 236.263 125.091 237.705 126.599 237.818C127.779 237.896 134.836 238.128 137.869 238.222Z" fill="black"/>
<path opacity="0.1" d="M104.722 240.748C104.722 240.748 99.8698 242.591 96.5336 242.823C94.7624 242.945 93.8313 241.823 93.3551 240.739C94.5895 241.168 96.3031 241.619 97.2039 241.206C98.2715 240.717 102.057 240.4 104.18 240.265C104.341 240.448 104.523 240.61 104.722 240.748Z" fill="black"/>
<path d="M111.923 92.252C107.919 90.6444 102.769 85.3325 104.055 82.8505C104.341 82.2242 104.511 81.5482 104.556 80.8574C104.638 79.9197 104.651 78.9767 104.592 78.037C104.502 76.498 104.323 74.966 104.055 73.4491C104.055 73.4491 116.554 73.7405 115.826 75.6428C115.614 76.2006 115.58 77.1689 115.638 78.2532C115.696 79.3375 115.847 80.5629 116.005 81.6002C116.223 83.0229 116.442 84.1072 116.442 84.1072C116.442 84.1072 115.677 85.2135 115.228 85.273C114.78 85.3325 117.667 94.5428 111.923 92.252Z" fill="#CF6F80"/>
<path opacity="0.1" d="M101.693 232.744L101.599 232.851C97.8621 228.181 93.343 234.001 93.343 234.001L93.2763 233.879L93.5068 231.234L100.595 229.331L101.599 232.503L101.693 232.744Z" fill="black"/>
<path opacity="0.1" d="M129.331 229.331C129.331 229.331 126.602 229.272 125.146 230.601C123.69 231.929 116.654 230.889 116.957 230.601C117.047 230.458 117.101 230.294 117.115 230.124L118.07 229.331L129.256 228.99C129.298 229.2 129.331 229.331 129.331 229.331Z" fill="black"/>
<path d="M106.342 192.663C106.139 193.182 105.984 193.72 105.881 194.27C105.628 195.776 105.558 197.309 105.672 198.833C105.784 201.027 105.672 215.728 105.672 215.728C105.672 215.728 103.273 219.648 101.935 221.03C100.598 222.412 104.665 224.894 104.665 224.894C105.271 228.466 101.596 232.503 101.596 232.503C97.859 227.833 93.34 233.656 93.34 233.656C93.34 233.656 90.8833 229.269 90.2707 227.702C89.658 226.135 92.6697 225.051 93.7282 224.414C94.7867 223.778 93.6766 220.027 93.6766 220.027C93.6766 220.027 92.7819 216.74 91.7204 213.741C90.6589 210.742 92.8911 195.812 92.8911 195.812C92.8911 195.812 93.0064 193.161 93.2824 192.236C93.4216 191.569 93.4493 190.882 93.3643 190.206C93.3461 189.977 93.3248 189.786 93.3097 189.657C93.2945 189.529 93.2824 189.469 93.2824 189.469L93.3248 189.394L94.8413 186.473C94.8413 186.473 107.07 190.823 106.342 192.663Z" fill="white"/>
<path d="M129.331 228.987C129.331 228.987 126.602 228.927 125.146 230.24C123.69 231.553 116.654 230.529 116.957 230.24C117.261 229.952 117.236 227.818 117.236 227.818C113.108 221.995 116.63 219.632 116.63 219.632C116.63 219.632 114.786 210.466 114.452 207.066C114.219 204.69 113.93 198.307 113.776 194.662C113.709 193.095 113.67 192.017 113.67 192.017L117.042 191.315L117.476 191.224L125.61 189.538C125.61 189.538 125.835 191.105 125.986 192.387C126.062 192.934 126.104 193.486 126.114 194.038C126.059 194.665 126.114 196.627 126.114 196.627L126.39 202.509C126.209 203.126 126.116 203.767 126.114 204.411C126.168 205.16 127.227 215.884 127.227 215.884C127.227 215.884 129.068 222.283 128.44 222.744C127.812 223.205 129.331 228.987 129.331 228.987Z" fill="white"/>
<path opacity="0.1" d="M115.826 75.6428C115.614 76.2006 115.58 77.1689 115.638 78.2532C113.964 79.2949 112.039 79.8275 110.085 79.7898C108.131 79.7521 106.227 79.1457 104.592 78.0401C104.502 76.5001 104.323 74.967 104.055 73.4491C104.055 73.4491 116.554 73.7343 115.826 75.6428Z" fill="black"/>
<path d="M120.657 68.7169C120.66 69.8462 120.488 70.9687 120.148 72.0419C119.388 74.4467 117.83 76.4965 115.749 77.829C113.668 79.1616 111.198 79.6911 108.776 79.3239C106.353 78.9568 104.134 77.7166 102.511 75.8227C100.888 73.9287 99.9657 71.5029 99.9062 68.9739C99.9062 68.8862 99.9062 68.8047 99.9062 68.7169C99.8827 67.2934 100.134 65.8793 100.645 64.5571C101.156 63.2349 101.916 62.031 102.882 61.0157C103.848 60.0005 105 59.1941 106.271 58.6436C107.541 58.0932 108.905 57.8097 110.283 57.8097C111.661 57.8097 113.025 58.0932 114.296 58.6436C115.567 59.1941 116.719 60.0005 117.685 61.0157C118.651 62.031 119.411 63.2349 119.922 64.5571C120.433 65.8793 120.684 67.2934 120.66 68.7169H120.657Z" fill="#CF6F80"/>
<path opacity="0.1" d="M111.923 92.2519C107.919 90.6443 102.769 85.3325 104.055 82.8505C104.341 82.2241 104.511 81.5482 104.556 80.8574L110.036 85.5111L113.427 88.3848L116.005 81.6032C116.223 83.026 116.442 84.1103 116.442 84.1103C116.442 84.1103 115.677 85.2165 115.228 85.276C114.78 85.3356 117.667 94.5428 111.923 92.2519Z" fill="black"/>
<path d="M126.095 112.819L121.519 192.262L115.55 192.666L100.094 146.602L102.63 91.9135L103.164 80.3591L110.036 86.1912L113.43 89.0649L116.084 82.0859L121.018 86.5296L126.095 112.819Z" fill="#006D77"/>
<path opacity="0.1" d="M106.342 192.663C106.139 193.182 105.984 193.72 105.881 194.27C101.538 193.577 97.3198 192.216 93.3673 190.231L93.2854 190.187L93.3127 189.682L93.3279 189.419L94.8443 186.498C94.8443 186.498 107.07 190.823 106.342 192.663Z" fill="black"/>
<path opacity="0.1" d="M117.112 194.283C116.002 194.478 114.882 194.61 113.758 194.678C113.691 193.111 113.651 192.033 113.651 192.033L117.024 191.331L117.112 194.283Z" fill="black"/>
<path opacity="0.1" d="M125.968 192.402C123.812 192.982 120.482 193.634 117.5 193.227L117.458 191.24L125.592 189.554C125.592 189.554 125.816 191.105 125.968 192.402Z" fill="black"/>
<path opacity="0.1" d="M117.446 193.59C105.011 195.784 93.6221 189.494 93.6221 189.494L93.7312 187.363C93.7312 187.363 94.0133 163.205 93.2308 161.353C92.4483 159.501 91.8387 150.108 92.2815 148.667C92.7243 147.225 90.665 125.608 90.665 125.608L90.3314 116.834L78.1208 111.722L83.5801 99.9643C84.3175 98.3157 84.9516 96.62 85.4787 94.8875C86.428 91.8351 90.8348 88.8361 90.8348 88.8361C90.8348 88.8361 95.3538 85.8401 97.1402 85.953C98.9266 86.0658 101.268 83.3018 101.268 83.3018C102.997 78.7483 104.562 80.8104 104.562 80.8104C104.562 81.0266 104.562 80.8104 104.477 81.4841C103.87 86.4826 114.285 102.277 114.434 102.556L115.426 127.52L116.43 159.112L117.446 193.59Z" fill="black"/>
<path d="M117.112 193.59C104.677 195.784 93.2854 189.494 93.2854 189.494L93.3976 187.363C93.3976 187.363 93.6796 163.205 92.8941 161.353C92.1086 159.501 91.502 150.109 91.9479 148.667C92.3937 147.225 90.3313 125.608 90.3313 125.608L89.9947 116.834L77.7781 111.704L83.2373 99.9455C83.9731 98.2963 84.6072 96.6007 85.1359 94.8687C86.0822 91.8164 90.4921 88.8173 90.4921 88.8173C90.4921 88.8173 95.0111 85.8214 96.7944 85.9342C98.5778 86.047 100.922 83.283 100.922 83.283C102.654 78.7296 104.562 80.7916 104.562 80.7916C104.562 81.0079 104.38 81.105 104.477 81.4654C105.811 86.3134 113.952 102.258 114.1 102.537L115.104 127.501L116.108 159.093L117.112 193.59Z" fill="white"/>
<path opacity="0.1" d="M113.761 103.249C112.423 102.672 105.338 94.314 105.338 94.314V92.4118C105.08 91.785 103.549 92.1674 102.305 92.6061L102.839 81.0517L103.446 81.5719C104.774 86.4168 113.606 102.97 113.761 103.249Z" fill="black"/>
<path d="M114.097 102.556C112.757 101.979 105.672 93.6214 105.672 93.6214V91.7192C105.414 91.0924 103.882 91.4747 102.639 91.9135L103.176 80.3591L103.782 80.8793C105.114 85.7242 113.949 102.28 114.097 102.556Z" fill="white"/>
<path opacity="0.1" d="M93.622 144.239C93.7889 144.239 102.269 143.318 102.269 143.318C102.269 143.318 107.404 153.75 107.067 156.288C106.73 158.827 106.121 161.074 104.055 160.676C101.99 160.278 92.9396 160.989 92.9396 160.989L93.622 144.239Z" fill="black"/>
<path d="M93.2854 143.546C93.4522 143.546 101.932 142.625 101.932 142.625C101.932 142.625 107.064 153.061 106.73 155.596C106.397 158.131 105.781 160.381 103.719 159.983C101.656 159.585 92.603 160.296 92.603 160.296L93.2854 143.546Z" fill="white"/>
<path d="M99.6757 138.648C99.6757 138.648 107.458 142.97 107.625 144.289C107.792 145.608 103.664 143.712 102.772 143.484C102.185 143.337 101.588 143.241 100.986 143.195L95.0384 143.361L99.6757 138.648Z" fill="#CF6F80"/>
<path opacity="0.1" d="M111.589 103.787C112.041 103.787 112.408 103.409 112.408 102.941C112.408 102.474 112.041 102.095 111.589 102.095C111.137 102.095 110.77 102.474 110.77 102.941C110.77 103.409 111.137 103.787 111.589 103.787Z" fill="black"/>
<path d="M111.589 103.443C112.041 103.443 112.408 103.064 112.408 102.597C112.408 102.129 112.041 101.751 111.589 101.751C111.137 101.751 110.77 102.129 110.77 102.597C110.77 103.064 111.137 103.443 111.589 103.443Z" fill="#3F3D56"/>
<path opacity="0.1" d="M113.096 140.416C113.549 140.416 113.915 140.037 113.915 139.569C113.915 139.102 113.549 138.723 113.096 138.723C112.644 138.723 112.277 139.102 112.277 139.569C112.277 140.037 112.644 140.416 113.096 140.416Z" fill="black"/>
<path d="M113.096 140.068C113.549 140.068 113.915 139.689 113.915 139.222C113.915 138.754 113.549 138.375 113.096 138.375C112.644 138.375 112.277 138.754 112.277 139.222C112.277 139.689 112.644 140.068 113.096 140.068Z" fill="#3F3D56"/>
<path opacity="0.1" d="M112.405 122.102C112.857 122.102 113.224 121.723 113.224 121.256C113.224 120.788 112.857 120.409 112.405 120.409C111.953 120.409 111.586 120.788 111.586 121.256C111.586 121.723 111.953 122.102 112.405 122.102Z" fill="black"/>
<path d="M112.405 121.757C112.857 121.757 113.224 121.378 113.224 120.911C113.224 120.443 112.857 120.065 112.405 120.065C111.953 120.065 111.586 120.443 111.586 120.911C111.586 121.378 111.953 121.757 112.405 121.757Z" fill="#3F3D56"/>
<path d="M131.282 143.02C131.282 143.02 131.84 143.885 131.282 144.289C130.724 144.693 131.336 145.671 131.336 145.671C131.336 145.671 129.944 146.514 130.557 147.272C131.169 148.031 130.781 151.456 130.781 151.456L129.107 154.32C129.107 154.32 129.207 156.166 129.213 158.661C129.213 162.553 128.992 168.025 127.767 170.519L127.936 190.986C127.936 190.986 122.074 193.199 117.166 192.525L116.439 159.682C116.439 159.682 117.5 141.058 117.891 137.486C118.12 135.631 118.214 133.761 118.17 131.892C118.17 131.892 118.004 126.301 117.442 123.706C117.442 123.706 116.836 112.465 116.775 109.353C116.748 107.865 116.824 103.521 116.909 99.3908C117.003 94.875 117.109 90.6161 117.109 90.6161L116.002 81.5657C116.002 81.5657 117.109 81.4497 117.442 81.9104C117.592 82.0546 117.754 82.1837 117.928 82.2959C119.838 83.6309 126.59 87.7362 126.59 87.7362C126.59 87.7362 130.326 89.2717 131.221 91.4717C132.116 93.6716 132.737 95.2323 133.171 95.859C133.605 96.4858 133.841 99.4316 133.841 99.4316C133.841 99.4316 135.127 104.853 136.131 105.771C137.135 106.689 137.869 112.531 137.869 112.531L128.998 119.739C128.998 119.739 128.218 131.729 128.052 132.193C127.885 132.656 131.282 143.02 131.282 143.02Z" fill="white"/>
<path d="M131.618 143.02C131.618 143.02 132.173 143.885 131.618 144.289C131.063 144.693 131.67 145.671 131.67 145.671C131.67 145.671 130.287 146.523 130.893 147.282C131.5 148.04 131.118 151.466 131.118 151.466L129.444 154.33C129.444 154.33 129.544 156.176 129.553 158.67C129.553 162.562 129.332 168.034 128.106 170.529L128.273 190.996C128.273 190.996 122.401 193.208 117.5 192.534L116.775 159.692C116.775 159.692 117.837 141.068 118.228 137.495C118.457 135.64 118.549 133.77 118.504 131.901C118.504 131.901 118.337 126.31 117.779 123.716C117.779 123.716 117.173 112.475 117.109 109.363C117.082 107.874 117.16 103.531 117.242 99.4003C117.336 94.8844 117.442 90.6256 117.442 90.6256L115.981 81.4529C115.981 81.4529 117.442 81.4529 117.779 81.9198C117.927 82.0658 118.09 82.195 118.264 82.3053C120.175 83.6403 126.929 87.7456 126.929 87.7456C126.929 87.7456 130.663 89.2812 131.558 91.4811C132.452 93.681 133.074 95.2417 133.511 95.8684C133.948 96.4952 134.178 99.441 134.178 99.441C134.178 99.441 135.464 104.863 136.468 105.781C137.472 106.699 138.197 112.528 138.197 112.528L129.325 119.736C129.325 119.736 128.546 131.726 128.376 132.189C128.206 132.653 131.618 143.02 131.618 143.02Z" fill="white"/>
<path opacity="0.1" d="M120.994 93.2861L121.795 95.6991L117.579 100.086C117.673 95.5738 117.779 91.3118 117.779 91.3118L116.317 82.1391C116.317 82.1391 117.779 82.1391 118.116 82.606C118.263 82.7516 118.426 82.8798 118.601 82.9884L122.186 93.6747L120.994 93.2861Z" fill="black"/>
<path d="M120.657 92.5935L121.461 95.0066L117.245 99.3939C117.339 94.8781 117.446 90.6192 117.446 90.6192L115.981 81.4465C115.981 81.4465 117.446 81.4465 117.779 81.9135C117.928 82.0585 118.09 82.1877 118.264 82.2989L121.852 92.9821L120.657 92.5935Z" fill="white"/>
<path opacity="0.1" d="M120.657 68.7169C120.66 69.8462 120.488 70.9687 120.148 72.0419C120.091 72.0512 120.032 72.0484 119.976 72.0339C119.92 72.0194 119.867 71.9933 119.82 71.9573C119.741 69.1369 118.398 66.4888 116.745 64.2356C116.281 63.5553 115.718 62.9528 115.077 62.4493C114.428 61.9461 113.622 61.7103 112.814 61.7881C111.904 61.9165 111.101 62.5558 110.182 62.6373C108.969 62.7407 107.883 61.8727 106.679 61.8288C106.189 61.8336 105.706 61.9462 105.262 62.1591C104.818 62.3721 104.423 62.6804 104.104 63.0635C103.471 63.8367 103.001 64.7375 102.724 65.7085C102.247 67.1809 101.987 68.719 101.953 70.2713C101.938 71.1488 101.856 72.2488 101.068 72.5684C101.127 71.9231 101.056 71.272 100.859 70.6565C100.663 70.041 100.344 69.4745 99.9244 68.9927L99.9062 68.9739C99.9062 68.8862 99.9062 68.8047 99.9062 68.7169C99.8827 67.2934 100.134 65.8793 100.645 64.5571C101.156 63.2349 101.916 62.031 102.882 61.0157C103.848 60.0005 105 59.1941 106.271 58.6436C107.541 58.0932 108.905 57.8097 110.283 57.8097C111.661 57.8097 113.025 58.0932 114.296 58.6436C115.567 59.1941 116.719 60.0005 117.685 61.0157C118.651 62.031 119.411 63.2349 119.922 64.5571C120.433 65.8793 120.684 67.2934 120.66 68.7169H120.657Z" fill="black"/>
<path d="M114.579 51.691C113.003 50.9249 111.211 50.7801 109.539 51.2836C108.699 51.5405 107.907 51.9573 107.055 52.1673C105.235 52.6217 103.112 52.1297 101.55 53.2297C100.683 53.8564 100.161 54.8467 99.6757 55.8088L98.4626 58.1968C97.8014 59.5036 97.1341 60.8323 96.8581 62.2707C96.5822 63.7092 96.749 65.3199 97.6315 66.4763C98.2745 67.3193 99.2238 67.8489 99.9214 68.6418C100.339 69.1241 100.656 69.6903 100.853 70.3051C101.049 70.9198 101.12 71.5698 101.062 72.2144C101.853 71.901 101.929 70.7979 101.947 69.9204C101.981 68.3681 102.241 66.83 102.718 65.3576C102.995 64.3863 103.465 63.4854 104.098 62.7126C104.418 62.3298 104.813 62.0217 105.257 61.8088C105.7 61.5959 106.183 61.4831 106.673 61.4779C107.886 61.5218 108.975 62.3867 110.176 62.2833C111.086 62.2049 111.892 61.5625 112.808 61.4371C113.616 61.3582 114.423 61.594 115.071 62.0984C115.712 62.6011 116.274 63.2037 116.736 63.8847C118.392 66.1379 119.735 68.7797 119.814 71.6064C120.157 71.8665 120.651 71.528 120.821 71.1269C120.991 70.7258 120.997 70.2557 121.212 69.8734C121.461 69.4315 121.937 69.1965 122.31 68.8643C123.257 68.0213 123.493 66.6017 123.457 65.3137C123.42 64.0257 123.178 62.7189 123.414 61.4528C123.557 60.6756 123.878 59.9486 124.054 59.1808C124.23 58.413 124.251 57.5512 123.836 56.89C123.229 55.9185 121.952 55.7273 120.839 55.6364C119.575 55.5236 118.443 55.6678 117.637 54.5678C117.258 53.9938 116.832 53.4549 116.363 52.957C116.202 52.7941 114.579 51.7599 114.579 51.691Z" fill="#512E4E"/>
<path opacity="0.1" d="M81.6147 117.777L78.4454 111.722L77.4415 121.064C77.4415 121.064 77.9995 125.213 77.8873 125.85C77.7751 126.486 80.1741 132.189 80.1741 132.189C80.1741 132.189 88.0991 146.774 91.3352 147.526L102.269 139.454L99.3694 135.649C99.3694 135.649 98.3655 135.245 98.1138 135.649C98.1138 135.649 92.7304 126.078 92.1723 125.386C91.6142 124.693 91.7234 123.311 91.7234 123.311C91.7234 123.311 90.8864 122.39 91.1654 121.525C91.4444 120.66 89.5488 117.661 89.5488 117.661L91.2776 115.991L81.6147 117.777Z" fill="black"/>
<path d="M78.6122 111.033L77.7751 111.722L76.7712 121.064C76.7712 121.064 77.3292 125.213 77.217 125.85C77.1048 126.486 79.5069 132.189 79.5069 132.189C79.5069 132.189 87.4288 146.774 90.6649 147.526L101.602 139.454L98.6991 135.649C98.6991 135.649 97.6952 135.245 97.4435 135.649C97.4435 135.649 92.0601 126.078 91.502 125.386C90.944 124.693 91.0562 123.311 91.0562 123.311C91.0562 123.311 90.2191 122.39 90.4981 121.525C90.7772 120.66 88.8786 117.661 88.8786 117.661L90.6073 115.991L78.6122 111.033Z" fill="white"/>
<path opacity="0.1" d="M130.557 147.63C131.163 148.391 130.781 151.81 130.781 151.81L129.107 154.675C129.107 154.675 129.207 156.523 129.213 159.015L126.399 159.924C126.144 160.006 125.875 160.024 125.612 159.976C125.35 159.929 125.102 159.817 124.89 159.651C124.678 159.484 124.507 159.267 124.392 159.019C124.278 158.77 124.222 158.497 124.23 158.222L124.715 142.048L131.282 144.643C130.724 145.044 131.336 146.028 131.336 146.028C131.336 146.028 129.944 146.868 130.557 147.63Z" fill="black"/>
<path d="M130.893 147.282C131.5 148.043 131.118 151.465 131.118 151.465L129.444 154.33C129.444 154.33 129.544 156.176 129.553 158.67L126.687 159.595C126.438 159.675 126.174 159.692 125.917 159.645C125.66 159.598 125.417 159.489 125.21 159.326C125.002 159.163 124.835 158.951 124.723 158.708C124.61 158.464 124.556 158.197 124.564 157.927L125.052 141.704L131.621 144.298C131.06 144.7 131.673 145.68 131.673 145.68C131.673 145.68 130.287 146.523 130.893 147.282Z" fill="white"/>
<path d="M133.068 139.573C133.068 139.573 132.622 142.515 131.506 142.688C130.39 142.86 129.89 147.448 128.776 147.285C127.663 147.122 128.4 143.02 128.44 142.224C128.479 141.428 127.227 138.131 128.164 137.382C129.101 136.633 132.067 137.382 132.067 137.382L133.068 139.573Z" fill="#CF6F80"/>
<path opacity="0.1" d="M135.443 116.912L137.548 112.525C137.548 112.525 138.385 115.868 138.385 117.655C138.385 119.441 139.555 119.616 139.555 119.616C139.555 119.616 140.838 121.183 140.162 122.324C139.486 123.465 139.213 126.304 139.213 126.304C139.213 126.304 139.434 131.722 138.43 132.471C137.426 133.22 137.217 135.01 137.217 135.01C137.217 135.01 135.373 138.41 135.431 139.218C135.488 140.027 132.865 145.502 132.865 145.502C132.865 145.502 134.148 138.698 126.672 135.759C126.672 135.759 126.614 133.449 127.172 132.816C127.73 132.183 128.601 131.895 128.055 128.695C127.509 125.495 127.897 121.672 127.897 120.904C127.897 120.137 129.571 115.348 129.571 115.348L135.443 116.912Z" fill="black"/>
<path d="M136.353 111.898L138.191 112.525C138.191 112.525 139.031 115.868 139.031 117.655C139.031 119.441 140.201 119.616 140.201 119.616C140.201 119.616 141.484 121.183 140.808 122.324C140.132 123.465 139.862 126.304 139.862 126.304C139.862 126.304 140.083 131.722 139.079 132.471C138.075 133.22 137.851 135.01 137.851 135.01C137.851 135.01 136.01 138.41 136.068 139.218C136.125 140.027 133.499 145.502 133.499 145.502C133.499 145.502 134.785 138.698 127.306 135.759C127.306 135.759 127.251 133.449 127.809 132.816C128.367 132.183 129.237 131.895 128.692 128.695C128.146 125.495 128.534 121.672 128.534 120.904C128.534 120.137 130.208 115.348 130.208 115.348L136.353 111.898Z" fill="white"/>
<path opacity="0.1" d="M95.7572 225.615C95.7572 225.615 98.687 223.713 100.61 225.094C102.533 226.476 95.7572 225.615 95.7572 225.615Z" fill="black"/>
<path opacity="0.1" d="M118.522 219.732C118.522 219.732 121.115 219.388 123.293 221.81C125.471 224.233 118.522 219.732 118.522 219.732Z" fill="black"/>
<g opacity="0.1">
<path opacity="0.1" d="M122.316 68.178C121.943 68.5102 121.464 68.7484 121.215 69.1902C121.003 69.5694 120.997 70.0364 120.827 70.4438C120.657 70.8511 120.163 71.1833 119.82 70.9264C119.741 68.1059 118.395 65.4578 116.742 63.2015C116.28 62.5205 115.718 61.9179 115.077 61.4152C114.428 60.9109 113.62 60.6751 112.811 60.754C111.901 60.8825 111.101 61.5218 110.182 61.6001C108.969 61.7067 107.88 60.8386 106.676 60.7947C106.186 60.7998 105.704 60.9128 105.26 61.1263C104.817 61.3398 104.422 61.6488 104.104 62.0326C103.471 62.8042 103.001 63.704 102.724 64.6744C102.247 66.1469 101.987 67.685 101.953 69.2372C101.935 70.1116 101.856 71.2021 101.074 71.5281C101.092 71.7596 101.092 71.9922 101.074 72.2238C101.862 71.9104 101.941 70.8073 101.959 69.9298C101.993 68.3775 102.253 66.8394 102.73 65.367C103.007 64.3957 103.477 63.4948 104.11 62.722C104.429 62.3393 104.824 62.0312 105.267 61.8183C105.71 61.6054 106.193 61.4925 106.682 61.4873C107.895 61.5312 108.987 62.3961 110.188 62.2927C111.098 62.2143 111.904 61.5719 112.817 61.4466C113.626 61.3677 114.434 61.6035 115.083 62.1078C115.724 62.6105 116.286 63.2131 116.748 63.8941C118.401 66.1473 119.748 68.7891 119.826 71.6158C120.169 71.8759 120.663 71.5375 120.833 71.1363C121.003 70.7352 121.009 70.2651 121.222 69.8828C121.47 69.4409 121.949 69.2059 122.322 68.8737C123.269 68.0307 123.505 66.6111 123.469 65.3231C123.469 65.2824 123.469 65.2416 123.469 65.204C123.411 66.3196 123.123 67.4572 122.316 68.178Z" fill="black"/>
<path opacity="0.1" d="M99.9275 67.9554C99.2299 67.1626 98.2776 66.633 97.6376 65.7931C97.0988 65.0496 96.791 64.1546 96.7551 63.2265C96.6596 64.3863 96.9731 65.5427 97.6376 66.4825C98.2776 67.3255 99.2299 67.8551 99.9275 68.648C100.597 69.4235 100.999 70.4066 101.071 71.4434C101.117 70.8124 101.04 70.1782 100.843 69.5789C100.647 68.9795 100.335 68.4274 99.9275 67.9554Z" fill="black"/>
<path opacity="0.1" d="M124.06 58.4945C123.881 59.2623 123.563 59.9925 123.417 60.7665C123.331 61.2838 123.3 61.8092 123.323 62.3334C123.333 62.0348 123.365 61.7373 123.417 61.4434C123.563 60.6662 123.881 59.9392 124.06 59.1714C124.165 58.7479 124.198 58.3092 124.16 57.874C124.142 58.0831 124.108 58.2904 124.06 58.4945Z" fill="black"/>
</g>
<path opacity="0.1" d="M41.1102 238.357C57.4317 238.357 70.6629 236.161 70.6629 233.452C70.6629 230.744 57.4317 228.548 41.1102 228.548C24.7887 228.548 11.5576 230.744 11.5576 233.452C11.5576 236.161 24.7887 238.357 41.1102 238.357Z" fill="#006D77"/>
<path d="M42.0626 139.501H40.1609V183.741H42.0626V139.501Z" fill="#535461"/>
<path d="M54.0122 183.606L53.894 185.599L53.7241 188.42L53.6544 189.592L53.4875 192.412L53.4148 193.584L53.2449 196.404L51.3281 228.391C51.2448 229.768 50.6571 231.059 49.6846 232.004C48.7121 232.948 47.4278 233.474 46.0933 233.474H36.1272C34.7929 233.474 33.5091 232.948 32.5371 232.003C31.565 231.059 30.978 229.767 30.8954 228.391L28.9877 196.383L28.8179 193.562L28.7481 192.39L28.5783 189.57L28.5085 188.398L28.3387 185.577L28.2173 183.584C28.1963 183.2 28.2513 182.816 28.379 182.456C28.5067 182.095 28.7044 181.765 28.96 181.486C29.2156 181.206 29.5237 180.984 29.8654 180.833C30.207 180.681 30.5751 180.603 30.947 180.604H51.3311C51.7016 180.607 52.0675 180.689 52.4062 180.844C52.7449 180.999 53.0492 181.224 53.3005 181.505C53.5517 181.787 53.7445 182.118 53.8669 182.48C53.9893 182.841 54.0388 183.224 54.0122 183.606Z" fill="#3F3D56"/>
<path d="M53.8939 185.599L53.7241 188.41H28.4963L28.3265 185.599H53.8939Z" fill="#9D9CB5"/>
<path d="M53.6544 189.582L53.4875 192.396H28.736L28.5661 189.582H53.6544Z" fill="#9D9CB5"/>
<path d="M53.4148 193.571L53.2479 196.382H28.9756L28.8057 193.571H53.4148Z" fill="#9D9CB5"/>
<path d="M25.424 156.082C36.4972 164.361 41.1193 177.31 41.1193 177.31C41.1193 177.31 27.7745 176.837 16.6983 168.557C5.62215 160.278 1.00909 147.332 1.00909 147.332C1.00909 147.332 14.3478 147.802 25.424 156.082Z" fill="#1D2366"/>
<path d="M1 147.332C1 147.332 14.8543 155.276 19.2975 161.854C23.7408 168.432 41.1193 177.31 41.1193 177.31" stroke="#535461" stroke-width="1.79704" stroke-miterlimit="10"/>
<path d="M32.5726 139.403C38.599 143.907 41.1193 150.955 41.1193 150.955C41.1193 150.955 33.8555 150.698 27.8261 146.194C21.7967 141.691 19.2824 134.64 19.2824 134.64C19.2824 134.64 26.5432 134.897 32.5726 139.403Z" fill="#1D2366"/>
<path d="M19.2824 134.64C19.2824 134.64 26.8222 138.965 29.2394 142.543C31.6567 146.122 41.1193 150.955 41.1193 150.955" stroke="#535461" stroke-width="1.79704" stroke-miterlimit="10"/>
<path d="M49.8693 150.597C42.9452 158.46 41.4803 168.736 41.4803 168.736C41.4803 168.736 51.2432 166.26 58.1613 158.394C65.0793 150.528 66.5503 140.256 66.5503 140.256C66.5503 140.256 56.7934 142.735 49.8693 150.597Z" fill="#1D2366"/>
<path d="M66.5564 140.259C66.5564 140.259 57.5365 148.319 55.2436 153.872C52.9507 159.425 41.4803 168.736 41.4803 168.736" stroke="#535461" stroke-width="1.79704" stroke-miterlimit="10"/>
<path d="M304.045 147.83C304.045 147.83 299.038 122.089 300.955 118.886C300.955 118.886 301.025 115.909 300.909 112.114C300.909 111.97 300.909 111.826 300.909 111.678C301.247 111.911 301.598 112.12 301.962 112.305C303.728 113.243 305.755 113.513 307.694 113.07L306.177 111.324C305.813 110.908 305.434 110.456 305.356 109.905C305.277 109.353 305.495 108.861 305.683 108.369C307.124 104.609 307.2 99.8797 304.424 97.0091C302.08 94.596 301.51 91.481 298.965 89.278C297.106 87.664 296.084 85.298 295.119 83.0103C294.304 81.0768 293.482 79.1275 293.015 77.078C292.651 75.4766 292.505 73.8188 292.005 72.2551C291.504 70.6913 290.567 69.1714 289.102 68.4725C288.581 68.225 288.001 68.084 287.525 67.7549C286.9 67.3193 286.524 66.6111 286.072 65.9906C283.776 62.8568 276.088 64.7026 272.448 65.9749C271.459 66.2953 270.543 66.8198 269.755 67.5167L269.789 67.4603C269.816 67.4133 269.849 67.3663 269.88 67.3193C269.481 67.6521 269.137 68.0489 268.861 68.4945C268.33 69.3626 268.108 70.3748 267.666 71.3149C267.132 72.4274 264.163 75.533 265.439 76.7834C265.529 76.8674 265.631 76.9352 265.743 76.984C266.222 77.1901 266.75 77.2447 267.259 77.1407L267.205 77.2754C266.768 78.3786 266.545 79.5592 266.546 80.7508C266.546 85.8997 270.656 90.0739 275.73 90.0739C276.684 90.0749 277.632 89.9237 278.542 89.6258C278.563 89.7449 278.581 89.864 278.602 89.9831C278.602 90.0301 278.617 90.0771 278.623 90.1241L278.463 90.356C278.455 90.3417 278.446 90.3281 278.435 90.3153L273.674 97.1908C272.946 97.7205 268.754 100.854 268.518 103.205C268.269 105.778 268.02 108.789 268.02 108.789L267.987 109.435C267.779 109.614 267.536 109.745 267.274 109.818C267.012 109.891 266.738 109.905 266.471 109.858C264.984 109.607 264.984 115.499 264.984 115.499C264.984 115.499 263.996 116.439 263.316 115.624C262.637 114.809 260.842 117.57 260.842 117.57L249.589 118.071L249.332 118.087L248.725 116.147C248.66 115.943 248.519 115.773 248.333 115.675C248.148 115.577 247.932 115.559 247.733 115.624C247.686 115.64 247.641 115.66 247.597 115.683L247.554 115.709L247.475 115.765L247.436 115.803C247.414 115.823 247.394 115.845 247.375 115.868L247.339 115.912L247.321 115.931C247.251 116.031 247.204 116.147 247.185 116.269C247.166 116.391 247.175 116.515 247.212 116.633L247.733 118.297C245.562 118.748 243.342 120.021 245.152 123.524L235.975 121.773L238.944 124.349L254.272 127.617C254.069 127.993 254.202 128.538 254.836 129.306C257.566 132.619 262.54 133.518 264.542 133.75C265.07 134.972 265.731 136.128 266.51 137.197L266.337 140.497C266.337 140.497 261.269 165.649 260.341 166.925C260.81 166.376 261.238 165.793 261.624 165.179C260.153 170.347 258.097 177.42 257.557 178.479C256.689 180.171 255.886 187.019 256.874 187.457C257.178 187.592 258.045 187.526 259.283 187.429V187.996L259.228 209.491C259.228 209.491 259.477 222.675 258.794 223.932C258.112 225.188 257.93 227.824 257.93 227.824C257.93 227.824 255.2 233.023 253.038 235.113C253.023 235.13 253.007 235.144 252.989 235.157L252.923 234.668C252.923 234.668 250.323 238.059 244.573 237.868C244.573 237.868 241.112 240.193 246.244 240.319C251.376 240.444 257.93 240.13 257.93 240.13C257.93 240.13 262.507 232.923 266.34 233.863V239.325H267.514V233.775C268.058 233.405 268.524 232.924 268.883 232.362C269.243 231.801 269.488 231.169 269.604 230.507C269.704 229.824 269.63 229.125 269.39 228.481C269.15 227.836 268.751 227.267 268.233 226.831C268 226.613 267.813 226.348 267.684 226.053C267.555 225.757 267.487 225.437 267.484 225.113L267.441 225.151C267.441 225.041 267.414 224.928 267.402 224.812C267.065 221.992 266.643 216.172 268.133 211.867C270.174 205.962 270.792 197.739 269.306 192.844C268.827 191.28 268.433 189.688 268.127 188.078C268.09 187.874 268.057 187.68 268.026 187.498C269.042 187.64 270.048 187.849 271.038 188.125C274.481 189.106 282.011 189.287 288.441 189.234C288.456 189.416 288.474 189.607 288.496 189.798C288.61 191.127 288.85 192.441 289.211 193.722C290.018 196.229 290.388 207.282 290.388 207.282C290.388 207.282 291.428 216.37 290.861 220.068C290.558 222.124 290.255 224.189 290.082 226.263V226.304C290.082 226.304 288.377 231.318 287.131 234.041C287.1 234.11 287.067 234.179 287.037 234.245C286.704 234.276 286.377 234.351 286.063 234.468C286.063 234.468 284.392 237.915 282.727 238.485C281.062 239.056 281.614 240.933 285.384 240.243C289.154 239.554 294.847 238.99 294.847 238.99L295.092 235.474L296.251 233.976L295.947 237.482L297.182 237.232L297.018 232.967L298.914 230.516C298.914 230.516 301.203 228.41 297.801 224.267V224.358C297.764 224.298 297.731 224.236 297.691 224.176V224.157C297.127 223.255 296.678 221.572 297.5 218.585C298.986 213.189 299.851 208.291 299.851 208.291C299.851 208.291 303.169 195.17 299.181 188.962H299.356C298.948 188.088 298.659 187.16 298.498 186.204C298.478 186.091 298.46 185.975 298.444 185.856C301.395 185.68 304.291 185.129 306.654 183.938C306.645 183.925 305.222 152.788 304.045 147.83ZM266.58 126.113V126.176L265.973 126.207L266.58 126.113ZM264.499 126.411C264.399 126.433 264.306 126.479 264.226 126.545C263.965 126.927 263.802 127.369 263.75 127.833L262.804 127.614C262.804 127.614 262.14 127.467 261.184 127.301L260.732 126.83C261.976 126.724 263.268 126.567 264.499 126.411Z" fill="url(#paint1_linear_365_3570)"/>
<path d="M295.808 233.011L295.447 237.451L296.657 237.2L296.475 232.384L295.808 233.011Z" fill="#1D2366"/>
<path d="M268.199 211.926C266.74 216.219 267.153 222.014 267.481 224.828C267.602 225.868 267.714 226.502 267.714 226.502C267.714 226.502 265.533 231.635 265.351 231.829C265.169 232.023 258.934 235.956 258.934 235.956L254.575 238.586C254.575 238.586 250.153 236.583 252.274 235.894C252.707 235.714 253.097 235.439 253.417 235.088C255.54 233.004 258.206 227.824 258.206 227.824C258.206 227.824 258.388 225.195 259.055 223.944C259.722 222.694 259.48 209.554 259.48 209.554L259.531 188.134V185.342L267.826 185.405C267.879 186.353 267.998 187.295 268.184 188.225C268.482 189.83 268.868 191.416 269.34 192.976C270.802 197.862 270.195 206.044 268.199 211.926Z" fill="#FFB0B1"/>
<path opacity="0.1" d="M267.714 226.502C267.714 226.502 265.533 231.635 265.351 231.829C265.169 232.023 258.934 235.956 258.934 235.956L254.575 238.585C254.575 238.585 250.153 236.583 252.274 235.894C252.707 235.714 253.097 235.439 253.417 235.088L253.605 236.458L255.058 236.395L267.493 224.834C267.602 225.869 267.714 226.502 267.714 226.502Z" fill="black"/>
<path d="M267.562 225.126L255.058 236.765L253.605 236.827L253.302 234.634C253.302 234.634 250.76 238.012 245.113 237.824C245.113 237.824 241.722 240.14 246.748 240.265C251.773 240.391 258.191 240.077 258.191 240.077C258.191 240.077 262.673 232.869 266.425 233.81V239.253H267.578V233.759C268.113 233.387 268.571 232.906 268.922 232.346C269.273 231.786 269.511 231.158 269.622 230.5C269.722 229.823 269.651 229.13 269.417 228.489C269.182 227.848 268.792 227.28 268.284 226.84C268.057 226.62 267.876 226.355 267.752 226.06C267.628 225.765 267.563 225.447 267.562 225.126Z" fill="#1D2366"/>
<path d="M296.96 218.62C296.154 221.597 296.593 223.274 297.145 224.173V224.192C297.853 225.302 298.346 226.545 298.595 227.849L298.644 228.131L292.954 236.702L289.866 237.956C289.866 237.956 284.902 236.204 285.808 235.702C286.036 235.58 286.391 234.928 286.797 234.029C288.01 231.318 289.684 226.317 289.684 226.317V226.276C289.86 224.211 290.139 222.152 290.449 220.102C291.004 216.414 289.985 207.36 289.985 207.36C289.985 207.36 289.621 196.351 288.832 193.847C288.476 192.574 288.24 191.269 288.126 189.949C287.962 188.382 287.925 187.091 287.925 187.091C287.925 187.091 291.195 182.39 297.188 187.467C297.667 187.872 298.089 188.344 298.44 188.871C302.58 194.957 299.247 208.363 299.247 208.363C299.247 208.363 298.413 213.239 296.96 218.62Z" fill="#FFB0B1"/>
<path opacity="0.1" d="M298.653 228.131L292.963 236.702L289.876 237.956C289.876 237.956 284.911 236.204 285.818 235.702C286.045 235.58 286.4 234.928 286.806 234.029C288.908 234.01 289.997 236.078 289.997 236.078L292.66 235.64C292.66 235.64 296.172 228.507 296.96 228.072C297.749 227.636 297.082 224.816 297.082 224.816V224.098C297.103 224.123 297.121 224.151 297.145 224.176V224.195C297.853 225.306 298.346 226.548 298.595 227.852L298.653 228.131Z" fill="black"/>
<path d="M290.179 236.263C290.179 236.263 288.662 233.387 285.757 234.449C285.757 234.449 284.122 237.896 282.487 238.454C280.853 239.012 281.399 240.892 285.093 240.206C288.787 239.52 294.355 238.952 294.355 238.952L294.598 235.446L298.353 230.504C298.353 230.504 300.591 228.407 297.261 224.28V224.997C297.261 224.997 297.928 227.818 297.139 228.253C296.351 228.689 292.851 235.825 292.851 235.825L290.179 236.263Z" fill="#1D2366"/>
<path opacity="0.1" d="M267.835 185.398C267.888 186.346 268.007 187.289 268.193 188.219C264.778 187.702 261.609 187.959 259.531 188.128V185.336L267.835 185.398Z" fill="black"/>
<path opacity="0.1" d="M298.777 189.651C298.777 189.651 293.925 189.895 288.138 189.946C287.974 188.379 287.938 187.088 287.938 187.088C287.938 187.088 291.207 182.387 297.2 187.464C297.679 187.869 298.101 188.341 298.453 188.868C298.547 189.135 298.655 189.396 298.777 189.651Z" fill="black"/>
<path d="M298.777 189.087C298.777 189.087 277.523 190.149 271.044 188.272C264.566 186.395 258.145 188.021 257.178 187.586C256.21 187.15 256.996 180.328 257.845 178.639C258.694 176.95 263.353 159.867 263.353 159.867L267.835 135.718L272.558 134.374L272.891 134.276L281.12 131.932L287.149 130.212C287.149 130.212 299.138 178.576 298.11 182.142C297.737 183.508 297.676 184.945 297.934 186.339C298.091 187.291 298.375 188.215 298.777 189.087Z" fill="#1D2366"/>
<path d="M252.21 119.203C252.21 119.203 247.964 123.904 251.179 126.523C254.394 129.143 256.508 126.774 256.508 126.774L252.21 119.203Z" fill="#C7DAF5"/>
<path opacity="0.1" d="M252.21 119.203C252.21 119.203 247.964 123.904 251.179 126.523C254.394 129.143 256.508 126.774 256.508 126.774L252.21 119.203Z" fill="black"/>
<path d="M286.515 88.297C286.515 88.297 286.018 88.7859 285.269 89.5067C284.201 90.5377 282.621 92.0451 281.22 93.308C279.279 95.0535 277.677 96.3352 278.25 95.2415C278.824 94.1478 278.714 92.2425 278.429 90.4593C278.408 90.3403 278.39 90.2212 278.369 90.1052C278.133 88.7956 277.82 87.5021 277.432 86.2318C277.432 86.2318 280.568 82.0451 282.302 80.3935C282.948 79.7668 283.4 79.5098 283.428 79.9454C283.458 80.5314 283.882 81.8257 284.41 83.1983C284.425 83.2422 284.441 83.2829 284.459 83.3268C284.811 84.2669 285.208 85.2321 285.557 86.0657C286.09 87.3443 286.515 88.297 286.515 88.297Z" fill="#FFB0B1"/>
<path opacity="0.1" d="M284.459 83.3269C284.164 84.9647 283.449 86.4907 282.388 87.7454C281.328 89.0001 279.96 89.9374 278.429 90.4594C278.188 89.0289 277.855 87.6166 277.432 86.2319C277.432 86.2319 283.337 78.3504 283.428 79.9455C283.449 80.5503 283.91 81.8916 284.459 83.3269Z" fill="black"/>
<path opacity="0.1" d="M277.841 92.5653L278.605 91.4528C278.605 91.4528 279.112 94.643 280.974 93.236C282.836 91.8289 282.927 103.825 282.927 103.825L280.928 134.703L266.486 133.809L266.895 118.889L268.53 111.368L272.573 100.434L274.978 96.821L277.841 92.5653Z" fill="black"/>
<path d="M282.927 104.016L281.107 131.936L280.916 134.894L272.864 134.396L272.561 134.377L266.495 134.001L266.904 119.077L268.539 111.556L272.582 100.622L274.987 97.0091L277.85 92.7377L278.614 91.6284C278.614 91.6284 279.121 94.8186 280.983 93.4115L281.022 93.3833C282.842 92.1924 282.927 104.016 282.927 104.016Z" fill="#1D2366"/>
<path d="M268.742 108.943C268.742 108.943 268.017 110.51 266.562 110.256C265.106 110.002 265.109 115.897 265.109 115.897C265.109 115.897 264.141 116.837 263.474 116.022C262.807 115.207 261.048 117.962 261.048 117.962L250.026 118.463C250.026 118.463 254.93 120.779 253.969 127.786C253.969 127.786 270.62 126.721 271.165 125.094C271.711 123.468 268.742 108.943 268.742 108.943Z" fill="white"/>
<path opacity="0.03" d="M268.742 108.943C268.742 108.943 268.017 110.51 266.562 110.256C265.106 110.002 265.109 115.897 265.109 115.897C265.109 115.897 264.141 116.837 263.474 116.022C262.807 115.207 261.048 117.962 261.048 117.962L250.026 118.463C250.026 118.463 254.93 120.779 253.969 127.786C253.969 127.786 270.62 126.721 271.165 125.094C271.711 123.468 268.742 108.943 268.742 108.943Z" fill="black"/>
<path d="M236.712 122.145L239.617 124.709L263.535 129.902L260.569 126.774L236.712 122.145Z" fill="white"/>
<path d="M277.887 93.5524C277.489 94.1792 276.352 97.3882 275.403 100.19C274.611 102.525 273.95 104.577 273.95 104.577C273.95 104.577 272.406 114.963 271.617 116.84C270.829 118.717 271.257 126.038 271.257 126.038L268.318 144.117C268.318 144.117 266.986 153.44 264.93 159.008C262.901 164.49 260.641 167.059 260.572 167.141C261.481 165.868 266.44 140.817 266.44 140.817L268.078 109.222C268.078 109.222 268.318 106.219 268.56 103.653C268.803 101.086 273.716 97.5825 273.716 97.5825L278.454 90.6223C278.93 91.2804 278.611 92.4274 277.887 93.5524Z" fill="white"/>
<path d="M265.533 134.157C265.533 134.157 258.558 133.844 255.179 129.651C251.8 125.458 262.989 127.977 262.989 127.977L265.897 128.667L265.533 134.157Z" fill="#FFB0B1"/>
<path opacity="0.1" d="M298.11 182.146C297.736 183.511 297.676 184.948 297.934 186.342C290.324 186.9 282.184 184.775 282.184 184.775C280.668 186.216 276.673 188.341 276.673 188.341L274.496 160.45C273.104 156.69 272.558 136.987 272.558 136.987C272.558 136.987 272.682 135.956 272.861 134.411C272.861 134.374 272.861 134.333 272.876 134.295C273.419 129.98 274.496 121.879 275.023 120.785C275.751 119.281 272.785 115.279 272.785 115.279L274.135 103.386L274.299 101.951C277.143 100.638 279.324 96.445 279.324 96.445L280.998 93.4146C282.818 92.2081 282.912 104.032 282.912 104.032L281.092 131.951L287.122 130.231C287.122 130.231 299.138 178.579 298.11 182.146Z" fill="black"/>
<path d="M305.92 184.073C297.625 188.329 282.548 184.386 282.548 184.386C281.032 185.828 277.037 187.953 277.037 187.953L274.857 160.062C273.467 156.301 272.922 136.599 272.922 136.599C272.922 136.599 274.675 121.898 275.402 120.397C275.615 119.958 275.512 119.306 275.26 118.604C274.022 115.263 273.567 111.667 273.931 108.109L274.514 102.998L274.675 101.566C277.522 100.249 279.703 96.0565 279.703 96.0565L281.22 93.3112L284.01 88.2532L285.332 85.859L285.557 86.069L287.27 87.6735C287.27 87.6735 287.998 88.3003 289.09 89.2404C291.465 91.3087 295.568 94.9502 297.685 97.1784C299.547 99.1401 300.136 106.771 300.306 112.515C300.418 116.298 300.351 119.262 300.351 119.262C298.474 122.456 303.384 148.093 303.384 148.093C304.527 153.048 305.92 184.073 305.92 184.073Z" fill="white"/>
<path opacity="0.03" d="M289.997 95.9937C289.997 95.9937 284.304 107.191 284.965 111.447C285.626 115.702 287.507 120.519 286.6 121.644C286.288 122.07 285.886 122.416 285.423 122.655C284.961 122.894 284.451 123.018 283.934 123.02C283.024 123.082 280.598 124.834 280.598 125.022C280.598 125.21 278.357 125.21 276.352 126.088C274.347 126.965 271.387 127.464 271.387 127.464C271.387 127.464 265.624 127.275 265.088 127.84C264.551 128.404 263.999 131.779 265.148 134.471C266.298 137.163 267.575 139.171 268.539 139.538C269.504 139.905 275.624 137.786 280.589 137.285C285.554 136.784 290.943 132.719 290.943 132.719C290.943 132.719 296.879 130.525 297.919 126.837C298.959 123.148 296.648 102.876 296.648 102.876C296.648 102.876 294.901 93.4271 289.997 95.9937Z" fill="black"/>
<path opacity="0.03" d="M289.269 95.0536C289.269 95.0536 283.576 106.254 284.243 110.506C284.911 114.759 286.785 119.579 285.875 120.707C285.565 121.134 285.163 121.48 284.7 121.719C284.238 121.958 283.729 122.082 283.212 122.083C282.302 122.145 279.876 123.897 279.876 124.085C279.876 124.273 277.635 124.273 275.63 125.148C273.625 126.022 270.665 126.523 270.665 126.523C270.665 126.523 264.903 126.335 264.369 126.899C263.835 127.464 263.277 130.842 264.429 133.531C265.582 136.219 266.856 138.231 267.82 138.598C268.785 138.965 274.905 136.846 279.87 136.348C284.835 135.85 290.224 131.779 290.224 131.779C290.224 131.779 296.157 129.585 297.185 125.9C298.213 122.214 295.914 101.935 295.914 101.935C295.914 101.935 294.173 92.4902 289.269 95.0536Z" fill="black"/>
<path d="M289.818 95.4296C289.818 95.4296 284.125 106.63 284.792 110.882C285.46 115.135 287.334 119.955 286.427 121.08C286.117 121.508 285.714 121.855 285.252 122.094C284.789 122.333 284.279 122.458 283.761 122.459C282.851 122.521 280.425 124.273 280.425 124.458C280.425 124.643 278.187 124.646 276.179 125.524C274.171 126.401 271.214 126.899 271.214 126.899C271.214 126.899 265.451 126.711 264.915 127.275C264.378 127.84 263.826 131.218 264.975 133.907C266.125 136.595 267.402 138.607 268.366 138.974C269.331 139.341 275.451 137.222 280.416 136.721C285.381 136.219 290.77 132.155 290.77 132.155C290.77 132.155 296.706 129.961 297.746 126.273C298.786 122.584 296.49 102.311 296.49 102.311C296.49 102.311 294.719 92.8787 289.818 95.4296Z" fill="white"/>
<path opacity="0.1" d="M289.694 125.47C289.694 125.47 285.144 124.53 286.727 126.097C288.311 127.664 288.302 129.037 290.24 128.974C292.178 128.911 289.694 125.47 289.694 125.47Z" fill="black"/>
<path opacity="0.1" d="M297.382 159.184C297.382 159.184 295.326 160.622 299.259 163.938C303.193 167.254 297.382 159.184 297.382 159.184Z" fill="black"/>
<path opacity="0.1" d="M293.458 171.008C293.458 171.196 292.73 177.902 295.453 179.579C298.177 181.255 293.458 171.008 293.458 171.008Z" fill="black"/>
<path d="M250.214 118.448C248.018 118.526 243.275 119.218 245.735 123.96C247.909 128.156 251.564 125.351 253.62 123.224C253.119 121.24 251.899 119.53 250.214 118.448Z" fill="#FFB0B1"/>
<path d="M253.647 123.185L253.739 123.089L253.647 123.185Z" fill="#FFB0B1"/>
<path opacity="0.1" d="M289.09 89.4315C286.761 91.0767 284.808 92.465 284.425 92.7533C283.382 93.5525 281.393 98.2438 280.11 100.638C279.088 102.565 275.767 103.06 274.514 103.183L274.675 101.751C277.523 100.434 279.703 96.2413 279.703 96.2413L285.332 86.0438L287.27 87.8646C287.27 87.8646 287.998 88.4913 289.09 89.4315Z" fill="black"/>
<path d="M289.09 89.2435C286.761 90.8887 284.808 92.277 284.425 92.5685C283.382 93.3645 281.393 98.0558 280.11 100.45C279.088 102.377 275.767 102.872 274.514 102.995L274.675 101.563C277.523 100.246 279.703 96.0533 279.703 96.0533L285.332 85.8558L287.27 87.6703C287.27 87.6703 287.998 88.2908 289.09 89.2435Z" fill="#DCE7FF"/>
<path d="M284.607 81.2585C284.609 83.1397 284.057 84.9769 283.024 86.5265C281.805 88.3586 279.991 89.6785 277.91 90.2465C275.83 90.8146 273.621 90.5933 271.685 89.6227C269.749 88.6522 268.214 86.9967 267.358 84.9566C266.502 82.9165 266.383 80.6271 267.021 78.5036C267.659 76.3802 269.013 74.5635 270.836 73.3831C272.66 72.2028 274.833 71.737 276.96 72.0702C279.088 72.4035 281.029 73.5138 282.432 75.1996C283.835 76.8854 284.607 79.0351 284.607 81.2585Z" fill="#FFB0B1"/>
<path opacity="0.1" d="M300.306 112.518C299.074 111.735 298.071 110.622 297.403 109.297C296.897 108.263 296.56 107.069 295.696 106.335C294.916 105.677 293.876 105.517 292.905 105.223C289.715 104.248 287.04 101.24 286.94 97.8051C286.891 96.188 287.379 94.5741 287.158 92.9727C287.032 92.0664 286.683 91.2086 286.145 90.4813C285.878 90.1335 285.585 89.8076 285.269 89.5067C284.844 89.093 284.398 88.6919 284.01 88.2532C283.765 87.9815 283.552 87.6819 283.373 87.36C283.229 87.0967 283.112 86.8183 283.024 86.5296C282.418 84.6117 282.97 82.3365 282.302 80.3967L282.266 80.2901C282.014 79.6007 281.502 78.9113 280.789 78.858C280.076 78.8047 279.467 79.4158 278.787 79.6884C277.365 80.2588 275.83 79.2873 274.644 78.297C273.458 77.3067 272.121 76.1754 270.614 76.3948C269.616 76.5421 268.827 77.2441 267.908 77.6076C267.701 77.6906 267.487 77.7546 267.268 77.7988C268.046 75.7947 269.475 74.1331 271.309 73.0993C273.144 72.0656 275.27 71.7243 277.321 72.134C279.373 72.5438 281.223 73.679 282.552 75.3447C283.882 77.0103 284.608 79.1025 284.607 81.2616C284.608 81.9136 284.542 82.5639 284.41 83.2015C284.425 83.2453 284.441 83.2861 284.459 83.3299C284.811 84.2701 285.208 85.2353 285.557 86.0689L287.27 87.6734C287.27 87.6734 287.998 88.3002 289.09 89.2403C291.465 91.3087 295.568 94.9501 297.685 97.1783C299.548 99.1463 300.13 106.774 300.306 112.518Z" fill="black"/>
<path d="M267.802 71.8821C268.236 70.9702 268.451 69.9485 268.97 69.0836C269.731 67.8301 271.059 67.0278 272.424 66.5421C275.988 65.2729 283.519 63.4302 285.769 66.5421C286.212 67.1688 286.579 67.8645 287.191 68.297C287.659 68.6261 288.223 68.7671 288.735 69.0147C290.17 69.7104 291.086 71.2271 291.574 72.7752C292.062 74.3233 292.208 75.9843 292.566 77.5794C293.024 79.6258 293.827 81.5656 294.628 83.4929C295.571 85.768 296.572 88.1278 298.392 89.7355C300.876 91.9291 301.425 95.0347 303.73 97.4415C306.46 100.3 306.372 105.016 304.964 108.761C304.779 109.253 304.57 109.767 304.643 110.29C304.716 110.814 305.092 111.29 305.447 111.707L306.939 113.446C303.408 114.327 299.414 112.421 297.77 109.077C297.264 108.043 296.927 106.852 296.06 106.116C295.283 105.458 294.24 105.301 293.272 105.007C290.082 104.029 287.407 101.017 287.307 97.5825C287.258 95.9686 287.746 94.3547 287.525 92.7565C287.402 91.8441 287.052 90.9803 286.509 90.2494C285.675 89.1244 284.416 88.3691 283.737 87.1156C282.588 85.0191 283.461 82.2958 282.633 80.0457C282.378 79.3562 281.869 78.6668 281.156 78.6135C280.443 78.5603 279.834 79.1714 279.151 79.444C277.732 80.0144 276.197 79.046 275.011 78.0526C273.825 77.0592 272.488 75.931 270.978 76.1535C269.98 76.2976 269.194 76.9996 268.275 77.3663C267.596 77.6358 266.219 77.8771 265.624 77.2848C264.369 76.0908 267.277 72.9977 267.802 71.8821Z" fill="#591D4B"/>
<path opacity="0.1" d="M298.613 108.043C298.104 107.009 297.77 105.818 296.903 105.085C296.126 104.427 295.083 104.267 294.112 103.972C290.925 102.998 288.25 99.9862 288.147 96.5515C288.098 94.9376 288.587 93.3206 288.368 91.7223C288.241 90.8158 287.891 89.958 287.352 89.2309C286.515 88.1059 285.256 87.3507 284.58 86.0971C283.431 84.0037 284.304 81.2804 283.473 79.0272C283.221 78.3409 282.709 77.6515 281.999 77.5951C281.289 77.5387 280.674 78.156 279.994 78.4287C278.575 78.999 277.037 78.0276 275.854 77.0373C274.672 76.047 273.328 74.9157 271.821 75.135C270.823 75.2823 270.034 75.9843 269.118 76.3478C268.439 76.6173 267.059 76.8618 266.465 76.2695C265.215 75.0159 268.124 71.9291 268.645 70.8198C269.079 69.9047 269.294 68.8862 269.816 68.0213C269.843 67.9743 269.874 67.9273 269.904 67.8802C269.514 68.2143 269.177 68.6098 268.906 69.0523C268.387 69.9172 268.172 70.9326 267.738 71.8508C267.214 72.9602 264.305 76.0564 265.558 77.3005C266.164 77.8959 267.529 77.6515 268.208 77.382C269.118 77.0153 269.913 76.3133 270.911 76.1692C272.427 75.9467 273.762 77.078 274.945 78.0683C276.127 79.0586 277.674 80.0301 279.087 79.4597C279.767 79.1871 280.361 78.5728 281.089 78.6292C281.817 78.6856 282.302 79.372 282.566 80.0614C283.394 82.3115 282.521 85.0348 283.67 87.1313C284.35 88.3629 285.608 89.1338 286.442 90.2651C286.985 90.996 287.335 91.8598 287.458 92.7722C287.68 94.3704 287.191 95.9843 287.24 97.5982C287.34 101.045 290.015 104.045 293.206 105.022C294.167 105.317 295.216 105.474 295.993 106.132C296.863 106.868 297.206 108.059 297.703 109.093C299.347 112.437 303.342 114.342 306.872 113.462L306.168 112.641C303.108 112.688 300.012 110.889 298.613 108.043Z" fill="black"/>
<path opacity="0.1" d="M277.705 93.7405C277.307 94.3673 276.17 97.5763 275.221 100.378C274.332 100.021 273.525 97.7424 273.525 97.7424L278.263 90.7791C278.748 91.4685 278.429 92.6123 277.705 93.7405Z" fill="black"/>
<path d="M277.886 93.5524C277.489 94.1792 276.352 97.3882 275.402 100.19C274.514 99.8357 273.707 97.5543 273.707 97.5543L278.444 90.5941C278.93 91.2804 278.611 92.4274 277.886 93.5524Z" fill="#DCE7FF"/>
<path d="M250.342 125.568L247.715 117.009C247.684 116.909 247.672 116.803 247.681 116.699C247.689 116.594 247.718 116.492 247.765 116.398C247.811 116.305 247.876 116.222 247.954 116.154C248.031 116.086 248.122 116.035 248.219 116.003C248.414 115.94 248.626 115.959 248.808 116.057C248.989 116.154 249.126 116.322 249.189 116.523L251.816 125.072L251.555 126.862L250.342 125.568Z" fill="#BE8B87"/>
<path opacity="0.1" d="M247.964 116.257C248.16 116.193 248.372 116.212 248.555 116.309C248.737 116.407 248.875 116.575 248.937 116.777L251.564 125.326L251.367 126.668L251.558 126.874L251.819 125.085L249.177 116.536C249.114 116.334 248.977 116.167 248.795 116.069C248.614 115.972 248.402 115.953 248.206 116.016C248.042 116.071 247.9 116.181 247.803 116.329C247.855 116.3 247.908 116.276 247.964 116.257Z" fill="white"/>
<path d="M250.342 125.568L251.816 125.085L251.6 126.552L251.555 126.874L251.124 126.411L250.342 125.568Z" fill="#EFC8C4"/>
<path d="M251.124 126.411C251.15 126.377 251.182 126.349 251.218 126.329C251.239 126.315 251.264 126.308 251.289 126.308C251.315 126.308 251.339 126.315 251.361 126.329C251.381 126.355 251.399 126.383 251.412 126.414C251.432 126.448 251.46 126.478 251.492 126.5C251.525 126.522 251.562 126.537 251.6 126.542L251.555 126.856L251.124 126.411Z" fill="#727A9C"/>
<path d="M247.7 120.049C247.7 120.049 252.968 120.018 251.728 122.333C250.487 124.649 248.549 124.928 248.549 124.928L247.7 120.049Z" fill="#FFB0B1"/>
<path d="M214.935 16.1158H214.708C205.658 16.1158 197.654 21.0641 193.05 28.3659C188.446 21.0641 180.442 16.1158 171.392 16.1158H171.164C164.373 16.1827 157.881 19.0165 153.099 24.0014C148.318 28.9863 145.634 35.7194 145.63 42.7376C145.63 51.4528 149.324 63.8188 156.528 73.9943C170.252 93.3832 193.05 110.347 193.05 110.347C193.05 110.347 215.848 93.3864 229.569 73.9943C236.775 63.8188 240.466 51.4528 240.466 42.7376C240.463 35.7199 237.779 28.9873 232.999 24.0025C228.218 19.0177 221.727 16.1835 214.935 16.1158ZM211.681 75.486C210.65 75.482 209.645 75.156 208.797 74.5508C207.949 73.9457 207.297 73.0897 206.929 72.0952H201.518C201.162 72.0929 200.815 71.9757 200.526 71.76C200.237 71.5443 200.021 71.2407 199.907 70.8918L198.245 65.7179L192.986 84.7057C192.884 85.0712 192.669 85.3926 192.375 85.6214C192.081 85.8503 191.723 85.9743 191.355 85.9749H191.248C190.864 85.9557 190.498 85.8008 190.211 85.5362C189.924 85.2715 189.733 84.9131 189.671 84.5208L184.251 50.8385L180.29 70.7696C180.2 71.1482 179.989 71.4845 179.691 71.7248C179.394 71.9651 179.027 72.0955 178.65 72.0952H171.028C170.799 72.1052 170.571 72.0673 170.357 71.9839C170.144 71.9004 169.948 71.7731 169.783 71.6096C169.618 71.4461 169.487 71.2498 169.397 71.0325C169.307 70.8151 169.261 70.5813 169.261 70.345C169.261 70.1087 169.307 69.8749 169.397 69.6575C169.487 69.4402 169.618 69.2439 169.783 69.0804C169.948 68.9169 170.144 68.7895 170.357 68.7061C170.571 68.6226 170.799 68.5848 171.028 68.5948H177.315L182.926 41.7975C183.018 41.4013 183.241 41.0505 183.555 40.805C183.87 40.5595 184.258 40.4346 184.652 40.4516C185.046 40.4686 185.422 40.6265 185.715 40.8983C186.009 41.1701 186.202 41.5389 186.262 41.9416L191.797 76.3008L196.51 59.3124C196.609 58.9546 196.816 58.6392 197.102 58.4133C197.388 58.1873 197.737 58.063 198.097 58.0589H198.13C198.486 58.059 198.834 58.1754 199.122 58.3915C199.411 58.6076 199.626 58.9123 199.737 59.2622L202.743 68.6042H206.862C207.155 67.6849 207.688 66.8671 208.402 66.241C209.116 65.615 209.984 65.205 210.909 65.0563C211.835 64.9077 212.782 65.0261 213.647 65.3986C214.511 65.7711 215.259 66.3831 215.808 67.1672C216.357 67.9512 216.686 68.8767 216.758 69.8416C216.83 70.8066 216.643 71.7733 216.217 72.6352C215.791 73.4971 215.143 74.2206 214.344 74.7259C213.545 75.2311 212.627 75.4985 211.69 75.4986L211.681 75.486Z" fill="#FAFAFA"/>
<defs>
<linearGradient id="paint0_linear_365_3570" x1="108.926" y1="242.832" x2="108.926" y2="49.9955" gradientUnits="userSpaceOnUse">
<stop stop-color="#808080" stop-opacity="0.25"/>
<stop offset="0.54" stop-color="#808080" stop-opacity="0.12"/>
<stop offset="1" stop-color="#808080" stop-opacity="0.1"/>
</linearGradient>
<linearGradient id="paint1_linear_365_3570" x1="67700.1" y1="145498" x2="67700.1" y2="46513" gradientUnits="userSpaceOnUse">
<stop stop-color="#808080" stop-opacity="0.25"/>
<stop offset="0.54" stop-color="#808080" stop-opacity="0.12"/>
<stop offset="1" stop-color="#808080" stop-opacity="0.1"/>
</linearGradient>
</defs>
</svg>
