<svg width="246" height="233" viewBox="0 0 246 233" fill="none" xmlns="http://www.w3.org/2000/svg">
<g clip-path="url(#clip0_365_3732)">
<path opacity="0.1" d="M142.895 40.9183C127.129 40.2009 112.1 33.5368 97.7711 26.2472C83.4421 18.9576 69.24 10.8795 53.8423 7.01678C43.9424 4.52961 32.6206 4.1798 24.6455 11.1285C16.9692 17.8133 14.4898 29.3539 13.1561 40.0616C12.1529 48.1189 11.571 56.5973 14.3131 64.1418C16.222 69.377 19.6095 73.7792 21.9531 78.7951C30.1049 96.2468 24.342 117.769 15.5065 134.823C11.3627 142.827 6.55541 150.443 3.35812 158.954C0.160826 167.465 -1.32007 177.215 1.47869 185.895C4.25255 194.492 10.86 200.96 18.0199 205.505C32.5617 214.727 49.6962 217.366 66.405 218.877C103.391 222.189 140.577 220.754 177.66 219.319C191.385 218.785 205.17 218.249 218.67 215.465C226.168 213.921 233.91 211.472 239.353 205.561C246.262 198.055 247.976 185.349 243.345 175.937C235.578 160.155 214.105 156.233 208.675 139.294C205.689 129.97 208.757 119.583 213.1 110.936C222.413 92.3871 238.028 76.1123 238.85 54.9075C239.417 40.3432 231.91 25.761 220.303 18.8687C208.139 11.6384 191.269 12.5514 182.295 24.5011C173.055 36.8125 156.815 41.5497 142.895 40.9183Z" fill="#EFC8C4"/>
<path d="M54.8544 214.935C54.8544 214.935 42.4004 202.608 40.0477 186.929C39.0936 180.344 36.5345 174.342 32.7542 169.822C30.9457 167.695 28.9925 165.79 26.9189 164.13" stroke="#535461" stroke-width="3.09359" stroke-miterlimit="10"/>
<path d="M25.3949 154.252C26.4863 156.185 26.98 164.376 26.98 164.376C26.98 164.376 21.1447 161.367 20.051 159.437C19.5258 158.51 19.3037 157.347 19.4334 156.204C19.5631 155.062 20.0341 154.034 20.7428 153.347C21.4514 152.659 22.3397 152.368 23.2121 152.538C24.0846 152.708 24.8697 153.325 25.3949 154.252Z" fill="#006D77"/>
<path d="M35.8609 160.679C35.9741 163.078 32.9919 170.305 32.9919 170.305C32.9919 170.305 29.3395 163.623 29.224 161.225C29.1801 160.081 29.482 158.961 30.0645 158.108C30.6469 157.254 31.4628 156.735 32.3355 156.663C33.2083 156.591 34.0674 156.973 34.7269 157.724C35.3863 158.476 35.7929 159.538 35.8586 160.679H35.8609Z" fill="#006D77"/>
<path d="M46.0052 179.154C45.1809 181.3 39.8167 185.569 39.8167 185.569C39.8167 185.569 39.2438 177.387 40.068 175.241C40.4737 174.231 41.1659 173.471 41.9956 173.123C42.8253 172.775 43.7262 172.867 44.5043 173.38C45.2825 173.893 45.8757 174.786 46.1564 175.865C46.4371 176.945 46.3828 178.126 46.0052 179.154Z" fill="#006D77"/>
<path d="M51.2789 195.387C50.7422 197.685 46.0074 203.077 46.0074 203.077C46.0074 203.077 44.3839 195.141 44.9205 192.841C45.1785 191.737 45.7608 190.812 46.5394 190.271C47.318 189.729 48.2291 189.614 49.0723 189.952C49.9154 190.29 50.6216 191.052 51.0354 192.071C51.4493 193.091 51.5368 194.283 51.2789 195.387Z" fill="#006D77"/>
<path d="M27.5937 176.115C29.4052 176.435 35.1318 173.05 35.1318 173.05C35.1318 173.05 30.2996 167.809 28.4791 167.489C27.6053 167.335 26.7206 167.642 26.0197 168.342C25.3188 169.042 24.8591 170.078 24.7417 171.222C24.6243 172.366 24.8588 173.525 25.3937 174.442C25.9285 175.36 26.7199 175.962 27.5937 176.115Z" fill="#006D77"/>
<path d="M33.9452 195.002C35.7567 194.596 40.4371 189.126 40.4371 189.126C40.4371 189.126 34.6267 186.02 32.8175 186.426C32.3843 186.519 31.9695 186.723 31.597 187.027C31.2245 187.331 30.9016 187.728 30.6471 188.197C30.3926 188.665 30.2114 189.194 30.114 189.755C30.0166 190.315 30.0049 190.895 30.0797 191.461C30.1544 192.028 30.3141 192.569 30.5495 193.054C30.7849 193.539 31.0914 193.958 31.4512 194.287C31.811 194.616 32.217 194.849 32.6458 194.972C33.0747 195.094 33.5178 195.105 33.9497 195.002H33.9452Z" fill="#006D77"/>
<path d="M42.0403 212.252C43.8767 212.252 49.198 207.897 49.198 207.897C49.198 207.897 43.8744 203.548 42.038 203.548C41.1564 203.548 40.3109 204.007 39.6875 204.823C39.0641 205.639 38.7139 206.746 38.7139 207.9C38.7139 209.054 39.0641 210.161 39.6875 210.977C40.3109 211.793 41.1564 212.252 42.038 212.252H42.0403Z" fill="#006D77"/>
<path d="M175.84 108.324C175.84 108.324 183.516 90.5225 195.087 85.394C199.946 83.2815 204.15 79.1635 207.07 73.6577C208.439 71.0255 209.621 68.2341 210.6 65.3187" stroke="#535461" stroke-width="3.09359" stroke-miterlimit="10"/>
<path d="M217.864 62.0579C216.546 63.7298 210.412 65.4611 210.412 65.4611C210.412 65.4611 211.918 57.4867 213.236 55.8117C213.872 55.0321 214.716 54.6106 215.588 54.638C216.459 54.6654 217.287 55.1396 217.894 55.9584C218.5 56.7772 218.837 57.8752 218.832 59.016C218.826 60.1568 218.479 61.2491 217.864 62.0579Z" fill="#006D77"/>
<path d="M214.395 76.474C212.584 76.9424 206.726 74.0313 206.726 74.0313C206.726 74.0313 211.3 68.3988 213.1 67.9393C213.532 67.8137 213.979 67.8024 214.415 67.9062C214.85 68.0099 215.266 68.2264 215.637 68.5432C216.007 68.86 216.326 69.2705 216.574 69.7507C216.822 70.2309 216.994 70.7712 217.08 71.3397C217.167 71.9082 217.165 72.4936 217.077 73.0615C216.988 73.6293 216.813 74.1682 216.563 74.6464C216.313 75.1247 215.992 75.5327 215.62 75.8465C215.248 76.1604 214.831 76.3737 214.395 76.474Z" fill="#006D77"/>
<path d="M201.769 92.0906C200.034 91.305 196.092 84.9137 196.092 84.9137C196.092 84.9137 202.206 83.0817 203.945 83.8672C204.363 84.0487 204.749 84.337 205.081 84.7154C205.413 85.0938 205.684 85.5548 205.879 86.0716C206.074 86.5884 206.189 87.1507 206.216 87.7259C206.244 88.3011 206.183 88.8777 206.039 89.4223C205.895 89.9668 205.67 90.4685 205.377 90.8982C205.083 91.3278 204.728 91.6769 204.33 91.9251C203.933 92.1734 203.502 92.3158 203.062 92.3442C202.623 92.3727 202.183 92.2864 201.769 92.0906Z" fill="#006D77"/>
<path d="M190.166 101.091C188.355 100.699 183.654 95.2597 183.654 95.2597C183.654 95.2597 189.449 92.0996 191.258 92.4909C192.129 92.6784 192.907 93.3111 193.421 94.2498C193.936 95.1885 194.144 96.3564 194.001 97.4964C193.858 98.6364 193.375 99.6552 192.658 100.329C191.94 101.002 191.048 101.275 190.178 101.088L190.166 101.091Z" fill="#006D77"/>
<path d="M201.61 67.797C201.608 70.2012 204.939 77.1766 204.939 77.1766C204.939 77.1766 208.265 70.2101 208.265 67.8089C208.277 67.228 208.2 66.65 208.038 66.109C207.876 65.5679 207.633 65.0747 207.323 64.6585C207.014 64.2424 206.644 63.9116 206.235 63.6857C205.826 63.4599 205.386 63.3435 204.942 63.3435C204.499 63.3435 204.059 63.4599 203.65 63.6857C203.241 63.9116 202.871 64.2424 202.562 64.6585C202.252 65.0747 202.009 65.5679 201.847 66.109C201.685 66.65 201.608 67.228 201.62 67.8089L201.61 67.797Z" fill="#006D77"/>
<path d="M188.153 78.5461C188.701 80.8406 193.466 86.1914 193.466 86.1914C193.466 86.1914 195.051 78.2407 194.498 75.9463C194.212 74.8832 193.621 74.0072 192.851 73.5027C192.081 72.9981 191.192 72.9045 190.37 73.2414C189.548 73.5784 188.858 74.3196 188.446 75.3091C188.033 76.2985 187.93 77.459 188.158 78.5461H188.153Z" fill="#006D77"/>
<path d="M176.182 91.3436C176.426 93.7152 180.43 100.05 180.43 100.05C180.43 100.05 183.013 92.565 182.769 90.1845C182.72 89.6078 182.584 89.0495 182.368 88.5427C182.153 88.0358 181.862 87.5905 181.513 87.233C181.163 86.8756 180.763 86.6131 180.335 86.4611C179.908 86.3091 179.461 86.2706 179.022 86.3479C178.583 86.4252 178.16 86.6167 177.778 86.9112C177.396 87.2057 177.063 87.5971 176.798 88.0626C176.533 88.5281 176.343 89.0582 176.237 89.6216C176.131 90.1851 176.112 90.7706 176.182 91.3436Z" fill="#006D77"/>
<path opacity="0.25" d="M217.864 62.0579C216.546 63.7298 210.412 65.4611 210.412 65.4611C210.412 65.4611 211.918 57.4867 213.236 55.8117C213.872 55.0321 214.716 54.6106 215.588 54.638C216.459 54.6654 217.287 55.1396 217.894 55.9584C218.5 56.7772 218.837 57.8752 218.832 59.016C218.826 60.1568 218.479 61.2491 217.864 62.0579Z" fill="black"/>
<path opacity="0.25" d="M214.395 76.474C212.584 76.9424 206.726 74.0313 206.726 74.0313C206.726 74.0313 211.3 68.3988 213.1 67.9393C213.532 67.8137 213.979 67.8024 214.415 67.9062C214.85 68.0099 215.266 68.2264 215.637 68.5432C216.007 68.86 216.326 69.2705 216.574 69.7507C216.822 70.2309 216.994 70.7712 217.08 71.3397C217.167 71.9082 217.165 72.4936 217.077 73.0615C216.988 73.6293 216.813 74.1682 216.563 74.6464C216.313 75.1247 215.992 75.5327 215.62 75.8465C215.248 76.1604 214.831 76.3737 214.395 76.474Z" fill="black"/>
<path opacity="0.25" d="M201.769 92.0906C200.034 91.305 196.092 84.9137 196.092 84.9137C196.092 84.9137 202.206 83.0817 203.945 83.8672C204.363 84.0487 204.749 84.337 205.081 84.7154C205.413 85.0938 205.684 85.5548 205.879 86.0716C206.074 86.5884 206.189 87.1507 206.216 87.7259C206.244 88.3011 206.183 88.8777 206.039 89.4223C205.895 89.9668 205.67 90.4685 205.377 90.8982C205.083 91.3278 204.728 91.6769 204.33 91.9251C203.933 92.1734 203.502 92.3158 203.062 92.3442C202.623 92.3727 202.183 92.2864 201.769 92.0906Z" fill="black"/>
<path opacity="0.25" d="M190.166 101.091C188.355 100.699 183.654 95.2597 183.654 95.2597C183.654 95.2597 189.449 92.0996 191.258 92.4909C192.129 92.6784 192.907 93.3111 193.421 94.2498C193.936 95.1885 194.144 96.3564 194.001 97.4964C193.858 98.6364 193.375 99.6552 192.658 100.329C191.94 101.002 191.048 101.275 190.178 101.088L190.166 101.091Z" fill="black"/>
<path opacity="0.25" d="M201.61 67.797C201.608 70.2012 204.939 77.1766 204.939 77.1766C204.939 77.1766 208.265 70.2101 208.265 67.8089C208.277 67.228 208.2 66.65 208.038 66.109C207.876 65.5679 207.633 65.0747 207.323 64.6585C207.014 64.2424 206.644 63.9116 206.235 63.6857C205.826 63.4599 205.386 63.3435 204.942 63.3435C204.499 63.3435 204.059 63.4599 203.65 63.6857C203.241 63.9116 202.871 64.2424 202.562 64.6585C202.252 65.0747 202.009 65.5679 201.847 66.109C201.685 66.65 201.608 67.228 201.62 67.8089L201.61 67.797Z" fill="black"/>
<path opacity="0.25" d="M188.153 78.5461C188.701 80.8406 193.466 86.1914 193.466 86.1914C193.466 86.1914 195.051 78.2407 194.498 75.9463C194.212 74.8832 193.621 74.0072 192.851 73.5027C192.081 72.9981 191.192 72.9045 190.37 73.2414C189.548 73.5784 188.858 74.3196 188.446 75.3091C188.033 76.2985 187.93 77.459 188.158 78.5461H188.153Z" fill="black"/>
<path opacity="0.25" d="M176.182 91.3436C176.426 93.7152 180.43 100.05 180.43 100.05C180.43 100.05 183.013 92.565 182.769 90.1845C182.72 89.6078 182.584 89.0495 182.368 88.5427C182.153 88.0358 181.862 87.5905 181.513 87.233C181.163 86.8756 180.763 86.6131 180.335 86.4611C179.908 86.3091 179.461 86.2706 179.022 86.3479C178.583 86.4252 178.16 86.6167 177.778 86.9112C177.396 87.2057 177.063 87.5971 176.798 88.0626C176.533 88.5281 176.343 89.0582 176.237 89.6216C176.131 90.1851 176.112 90.7706 176.182 91.3436Z" fill="black"/>
<path d="M176.281 107.971C176.281 107.971 177.789 87.6232 186.77 76.803C190.558 72.2935 193.127 66.2982 194.093 59.7159C194.532 56.5867 194.751 53.4113 194.747 50.2296" stroke="#535461" stroke-width="3.09359" stroke-miterlimit="10"/>
<path d="M200.376 43.364C199.697 45.5932 194.616 50.4312 194.616 50.4312C194.616 50.4312 193.524 42.3412 194.211 40.1119C194.541 39.0415 195.182 38.1867 195.994 37.7355C196.806 37.2844 197.721 37.2739 198.539 37.7063C199.357 38.1387 200.01 38.9787 200.354 40.0413C200.699 41.104 200.707 42.3024 200.376 43.3728V43.364Z" fill="#006D77"/>
<path d="M201.669 58.3997C200.168 59.7811 193.903 60.2347 193.903 60.2347C193.903 60.2347 196.344 52.6635 197.845 51.282C198.201 50.9332 198.607 50.6814 199.038 50.5416C199.47 50.4018 199.919 50.3769 200.358 50.4682C200.797 50.5595 201.218 50.7653 201.595 51.0734C201.973 51.3814 202.299 51.7855 202.555 52.2616C202.811 52.7377 202.991 53.2762 203.085 53.8452C203.18 54.4142 203.185 55.0022 203.103 55.5743C203.02 56.1463 202.851 56.6909 202.605 57.1757C202.358 57.6605 202.04 58.0757 201.669 58.3967V58.3997Z" fill="#006D77"/>
<path d="M194.953 79.3821C193.124 79.5837 187.54 75.8248 187.54 75.8248C187.54 75.8248 192.567 70.9038 194.396 70.7022C195.275 70.6055 196.147 70.9697 196.82 71.7146C197.494 72.4596 197.914 73.5243 197.987 74.6746C198.061 75.8248 197.783 76.9664 197.214 77.8481C196.645 78.7298 195.832 79.2795 194.953 79.3762V79.3821Z" fill="#006D77"/>
<path d="M187.139 93.7567C185.361 94.3496 179.374 91.898 179.374 91.898C179.374 91.898 183.693 85.9365 185.47 85.3317C186.323 85.042 187.23 85.208 187.99 85.7931C188.75 86.3782 189.301 87.3346 189.522 88.4518C189.743 89.569 189.617 90.7556 189.17 91.7504C188.723 92.7453 187.992 93.467 187.139 93.7567Z" fill="#006D77"/>
<path d="M187.297 57.2494C188.04 59.4461 193.235 64.0677 193.235 64.0677C193.235 64.0677 194.118 55.9332 193.375 53.7366C193.005 52.7088 192.342 51.9114 191.529 51.5145C190.716 51.1177 189.816 51.153 189.023 51.6129C188.229 52.0727 187.604 52.9207 187.282 53.9756C186.96 55.0305 186.965 56.2087 187.297 57.2583V57.2494Z" fill="#006D77"/>
<path d="M178.321 74.212C179.533 76.0174 185.542 78.383 185.542 78.383C185.542 78.383 184.528 70.2753 183.317 68.4699C183.031 68.0313 182.681 67.6715 182.288 67.4114C181.895 67.1513 181.466 66.996 181.027 66.9546C180.588 66.9132 180.146 66.9865 179.729 67.1703C179.311 67.354 178.926 67.6446 178.595 68.0251C178.264 68.4055 177.994 68.8683 177.801 69.3865C177.608 69.9047 177.495 70.468 177.47 71.0436C177.444 71.6193 177.506 72.1958 177.653 72.7397C177.799 73.2837 178.026 73.7841 178.321 74.212Z" fill="#006D77"/>
<path d="M171.327 92.2716C172.287 94.3171 177.905 97.9782 177.905 97.9782C177.905 97.9782 177.952 89.7637 176.999 87.7152C176.524 86.7694 175.787 86.1028 174.943 85.8567C174.1 85.6106 173.216 85.8045 172.48 86.3972C171.743 86.9898 171.212 87.9347 170.999 89.0314C170.786 90.128 170.908 91.2903 171.338 92.2716H171.327Z" fill="#006D77"/>
<path d="M164.733 28.2838C165.109 26.4785 165.562 24.6642 165.879 22.8351C165.498 24.6642 165.043 26.4844 164.733 28.2838Z" fill="url(#paint0_linear_365_3732)"/>
<path d="M163.048 45.6731C163.017 45.6019 162.994 45.5308 162.969 45.4656C162.969 45.4359 162.946 45.4122 162.937 45.3825C162.888 45.413 162.837 45.4398 162.786 45.4626C162.686 45.513 162.584 45.5604 162.48 45.599C162.376 45.6375 162.333 45.6582 162.253 45.682C162.188 45.7116 162.12 45.7344 162.052 45.7501L162.07 45.8035C162.154 45.7798 162.235 45.759 162.319 45.7294L162.342 46.097C162.437 46.097 162.525 46.0792 162.611 46.0792C162.652 46.0763 162.693 46.0763 162.733 46.0792C162.91 46.0792 163.064 46.0792 163.186 46.0792C163.139 45.9458 163.089 45.8065 163.048 45.6731ZM209.015 141.463C207.951 139.587 205.827 119.446 205.827 119.446C205.827 119.446 201.649 105.125 202.788 99.4097C203.927 93.6943 199.677 79.0706 199.677 79.0706C199.677 79.0706 196.869 77.4728 196.717 75.1012C196.717 75.1012 185.253 70.3581 184.716 66.8007C184.281 63.8837 177.171 61.7908 174.617 61.1297C173.838 57.0151 173.055 53.1761 172.477 51.0802C172.321 50.4281 172.174 49.8648 172.038 49.4201C171.062 46.1592 168.046 45.8628 165.858 46.1237C165.764 45.5679 165.587 45.0414 165.34 44.5733C165.304 44.4123 165.232 44.2689 165.134 44.1612C165.087 44.1088 165.037 44.0612 164.984 44.0189C164.945 43.9228 164.893 43.8365 164.83 43.764C164.768 43.6907 164.7 43.627 164.627 43.5742C164.574 43.537 164.519 43.5043 164.463 43.4764C164.332 43.411 164.197 43.3623 164.058 43.3311C163.897 43.2877 163.733 43.26 163.569 43.2481C163.969 43.0193 164.325 42.6782 164.613 42.2491C164.809 41.9479 164.954 41.5965 165.041 41.2175C165.113 40.9023 165.145 40.5739 165.136 40.2451C165.077 40.3806 165.009 40.5086 164.932 40.6276C165.027 39.3143 164.497 37.9803 164.194 36.673C163.826 34.971 163.758 33.1821 163.995 31.4407C164.298 28.8142 165.05 26.1581 165.559 23.4841C165.561 23.4694 165.561 23.4544 165.559 23.4397C165.827 22.1117 165.992 20.7522 166.053 19.3813C166.141 16.6155 165.6 13.8556 164.731 11.3358C163.959 9.10356 162.82 6.9069 161.076 5.99977C159.781 5.31498 158.329 5.42467 156.934 5.31202C153.805 5.05708 150.821 3.61635 147.845 2.30606C144.87 0.995774 141.808 -0.195937 138.677 0.0323257C135.545 0.260589 132.323 2.23788 130.894 5.86637C130.441 6.99879 130.181 8.25869 129.64 9.32293C128.625 11.3299 126.809 12.3348 125.294 13.7192C123.78 15.1036 122.446 17.069 121.898 19.4139C121.599 20.6773 121.556 22.021 121.776 23.3122C121.825 23.6038 121.888 23.8909 121.966 24.1719C122.181 24.9552 122.516 25.6725 122.951 26.2796C123.279 26.7283 123.656 27.1109 124.069 27.415C124.589 27.792 125.145 28.0752 125.722 28.2569C125.702 28.3458 125.682 28.4407 125.659 28.5326C125.623 28.6838 125.591 28.829 125.557 28.9921C125.482 29.3567 125.412 29.7273 125.353 30.1008C125.351 30.1274 125.351 30.1542 125.353 30.1808C125.075 31.867 124.935 33.5873 124.937 35.3123C124.936 36.1281 124.968 36.9435 125.032 37.755C125.937 49.7848 133.523 59.274 142.895 59.8906C143.217 59.9113 143.541 59.9232 143.869 59.9232C144.018 59.9232 144.166 59.9232 144.322 59.9232C144.469 60.1781 144.614 60.439 144.752 60.694C144.89 60.9489 145.017 61.2098 145.137 61.4647L144.809 61.02L144.48 60.6258C144.391 60.7857 144.292 60.9355 144.184 61.0734C143.97 60.9748 143.751 60.8936 143.529 60.8303C142.59 60.5576 141.159 60.4568 139.275 61.2009C137.542 61.8797 135.425 63.276 132.948 65.9292L120.877 75.4154L114.346 80.6151L111.993 88.1448C111.993 88.1448 110.225 97.0915 108.257 107.343C108.18 107.372 108.106 107.402 108.031 107.437C107.871 107.414 107.711 107.402 107.551 107.402C106.409 107.398 105.311 107.974 104.487 109.009C103.662 110.043 103.176 111.455 103.131 112.948C99.2179 119.174 98.996 125.399 99.9153 128.257C99.9986 128.525 100.103 128.78 100.228 129.019C100.83 130.157 101.956 133.092 103.097 136.219C103.067 136.477 103.049 136.694 103.04 136.857C103.038 136.91 103.038 136.963 103.04 137.017C103.04 137.017 103.719 150.449 101.455 154.3C100.959 155.139 101.034 156.241 101.455 157.463C102.972 161.856 108.971 167.723 108.971 167.723C108.971 167.723 116.164 167.672 120.172 167.1C120.161 167.628 120.152 168.152 120.143 168.665C120.052 173.847 120.052 178.19 120.052 178.19L119.903 183.624C119.903 183.624 118.544 195.076 117.865 198.233C117.437 200.213 117.931 218.548 118.361 232.028H189.24C190.074 224.053 188.898 199.825 188.898 199.825C188.898 199.825 187.782 193.561 187.741 188.1C187.739 188.094 187.738 188.088 187.738 188.081C187.738 188.074 187.739 188.068 187.741 188.062C187.741 187.584 187.741 187.119 187.755 186.663L188.269 186.639L189.193 186.597H189.276C189.276 186.597 189.299 186.485 189.351 186.301C189.473 185.843 189.64 185.408 189.847 185.005C190.241 184.244 190.857 183.496 191.783 183.446C192.295 183.419 193.087 182.877 193.982 182.076C193.988 182.078 193.994 182.078 194 182.076C196.407 179.945 199.588 176.011 200.361 175.365C201.423 174.476 206.508 168.547 206.508 168.547C206.508 168.547 207.267 167.29 208.075 165.775L208.105 165.722C209.11 163.824 210.179 161.557 209.916 160.842C209.463 159.561 210.22 156.499 210.22 156.499C212.581 150.84 210.079 143.34 209.015 141.463ZM165.229 50.2828C165.251 50.3713 165.264 50.4628 165.27 50.5555C165.213 50.4577 165.156 50.3539 165.1 50.2591L165.045 50.1642L165.007 50.0931L165.093 49.9389C165.093 49.9389 165.093 49.9389 165.093 49.9597C165.153 50.0558 165.199 50.1652 165.229 50.2828ZM164.468 47.6563C164.221 47.7215 164.026 47.7808 163.9 47.8253C163.739 47.4517 163.585 47.0782 163.447 46.6988C163.81 46.9745 164.152 47.2951 164.468 47.6563ZM164.042 48.1247C164.042 48.1188 164.042 48.1128 164.042 48.1069L164.06 48.1247C164.153 48.2047 164.244 48.2818 164.328 48.3618C164.402 48.433 164.47 48.5012 164.538 48.5723C164.493 48.6761 164.443 48.7828 164.393 48.8687C164.314 48.7057 164.239 48.5486 164.167 48.3855C164.122 48.3203 164.081 48.2314 164.042 48.1247ZM162.684 44.4665C163.121 44.41 163.562 44.41 163.999 44.4665C164.06 44.4665 164.115 44.4814 164.169 44.4932C164.292 44.5181 164.412 44.5588 164.529 44.6148C164.797 45.1049 164.961 45.6783 165.007 46.2778L164.885 46.3015L164.765 46.3312C164.538 46.3816 164.312 46.432 164.135 46.4794L163.909 46.5417C163.608 46.6276 163.433 46.6928 163.426 46.6958C163.397 46.6158 163.368 46.5416 163.336 46.4646C163.286 46.3371 163.234 46.2067 163.189 46.0792C163.143 45.9517 163.084 45.8065 163.037 45.6731C163.005 45.6019 162.983 45.5308 162.958 45.4656C162.958 45.4359 162.935 45.4122 162.926 45.3825C162.913 45.3511 162.901 45.3184 162.892 45.2847C162.754 44.9171 162.627 44.5495 162.505 44.1879C162.491 44.1523 162.48 44.1138 162.469 44.0782L162.641 44.0634V44.1404L162.684 44.4665ZM108.658 228.363C108.64 223.949 108.395 219.174 107.716 214.691C107.426 212.785 107.127 210.879 106.824 209.006C106.747 208.537 106.672 208.075 106.597 207.612L105.9 207.734H105.837C103.935 195.992 101.946 185.646 101.946 185.646C101.946 185.646 97.9974 165.905 98.4548 164.331C98.5137 164.127 98.439 163.575 98.2714 162.766C97.3158 158.278 93.326 145.91 91.9312 141.683C91.9312 141.665 91.9198 141.644 91.9153 141.629C91.6889 140.921 91.5258 140.444 91.476 140.304L91.8044 133.996L91.8225 133.617L91.8655 132.81L91.8474 132.789L91.8655 132.416C91.8655 132.416 88.4191 128.716 82.5816 126.045C82.3551 125.939 82.1151 125.835 81.8773 125.734C82.1695 123.182 82.5567 120.3 83.0616 117.493C83.1092 117.211 83.1613 116.939 83.2156 116.663C83.2631 116.387 83.3175 116.12 83.3718 115.851C83.4579 115.412 83.5507 114.979 83.6458 114.552C83.9606 114.422 84.2708 114.276 84.5765 114.122L84.6942 114.063C88.4601 112.145 91.5674 108.505 93.4408 103.817C95.3143 99.1301 95.827 93.7129 94.8839 88.5687C94.3462 85.6512 93.3532 82.911 91.9674 80.5202C91.8632 80.3364 91.7523 80.1526 91.6413 79.9718C91.5304 79.791 91.3968 79.5894 91.2722 79.4056C91.9266 77.4579 92.6988 75.6052 92.7622 73.7109C92.7735 73.471 92.7735 73.2304 92.7622 72.9905V72.9609C92.6784 71.7425 92.2663 70.5093 91.3062 69.2138C89.9045 67.3136 87.9096 66.3501 85.9147 65.8877C83.9198 65.4252 81.8864 65.4134 79.8802 65.1021C76.5538 64.5804 73.3135 63.2375 69.9871 62.8254C65.8899 62.3287 61.7649 63.2487 58.0245 65.4934C55.5495 66.9756 53.0429 69.5666 52.8934 73.1209C52.7711 76.0587 54.3335 78.875 53.9395 81.7772C53.5478 84.629 51.3287 86.8731 51.5235 89.7575C51.5982 90.884 52.0397 91.8919 52.5923 92.7901C52.7825 93.0866 52.984 93.383 53.1923 93.6794C53.9984 94.797 54.8861 95.8702 55.3367 97.2783C55.3548 97.3376 55.3729 97.3969 55.3887 97.4562C55.7714 98.8465 55.5993 100.604 54.6528 101.402C54.6581 101.407 54.662 101.414 54.6641 101.423C54.6777 101.446 54.6913 101.464 54.7026 101.488C54.704 101.483 54.704 101.478 54.7026 101.473C55.0382 101.994 55.4906 102.363 55.9956 102.528L56.1881 102.605C56.0318 102.828 55.8846 103.059 55.7352 103.302L55.6378 103.471C55.3883 103.91 55.1613 104.371 54.9585 104.85C54.843 105.116 54.7321 105.383 54.6392 105.65C54.3288 106.463 54.1041 107.328 53.9713 108.22C53.729 110.183 54.0709 112.228 53.7041 114.149C53.2512 116.521 51.8178 118.341 51.0095 120.543C49.4787 124.694 50.346 129.564 50.654 134.147C51.0729 140.373 50.3935 146.625 49.7165 152.808C49.3572 156.097 48.9979 159.389 48.6387 162.683C47.7329 170.952 46.8272 179.221 45.9214 187.49C45.5908 190.519 45.1991 193.715 43.657 196.054H43.6729C43.6729 196.054 43.6729 196.072 43.657 196.078C44.1199 196.342 44.6123 196.509 45.1153 196.57C47.1283 196.834 49.2614 195.559 51.0729 194.166C52.5074 193.08 53.8661 191.831 55.1329 190.433C54.9472 191.323 54.7479 192.292 54.5351 193.336C54.5358 193.345 54.5358 193.355 54.5351 193.365C51.9786 206.112 47.8665 229.481 47.8665 229.481C47.8665 229.481 47.4929 230.498 47.0083 232.013H110.864C110.116 230.827 109.421 229.692 108.878 228.776L108.658 228.363ZM61.378 110.497C61.3939 110.461 61.4052 110.429 61.421 110.396C61.421 110.491 61.421 110.583 61.421 110.672C61.421 110.761 61.421 110.841 61.421 110.924C61.421 111.007 61.421 110.998 61.421 111.039C61.421 111.039 61.421 111.081 61.421 111.039C61.421 111.161 61.4006 111.282 61.3848 111.404C61.3848 111.404 61.3848 111.419 61.3848 111.431L61.6112 111.54L61.8739 111.683C63.4258 112.485 64.9972 113.211 66.5883 113.861C66.7514 113.93 66.9167 113.995 67.082 114.057L67.1159 114.425C67.1567 114.801 67.1952 115.184 67.2314 115.566C67.2314 115.566 67.2314 115.584 67.2314 115.596C67.3333 116.654 67.4329 117.709 67.5212 118.741C67.5212 118.741 63.3639 116.666 63.4159 119.817C63.4136 119.873 63.4136 119.93 63.4159 119.986C63.4113 120.061 63.4113 120.136 63.4159 120.211C63.4544 122.666 64.0409 124.121 64.1587 124.868C64.1516 124.899 64.1392 124.928 64.1224 124.951C64.022 125.238 63.9873 125.556 64.0228 125.867C64.0188 126.398 64.0507 126.928 64.1179 127.451C63.9956 127.548 63.8756 127.646 63.7556 127.747C63.665 127.821 63.579 127.904 63.4907 127.987C62.9352 125.464 62.2084 123.012 61.3191 120.659C60.6964 118.981 59.9967 117.232 60.0035 115.391C60.0035 115.273 60.0035 115.151 60.0149 115.029C60.0401 114.496 60.1177 113.969 60.2458 113.461C60.2979 113.269 60.3545 113.079 60.4179 112.892C60.5659 112.448 60.7314 112.015 60.9138 111.594C61.0316 111.315 61.1561 111.039 61.2761 110.761C61.3146 110.678 61.3508 110.592 61.3871 110.509L61.378 110.497ZM163.048 45.6731C163.017 45.6019 162.994 45.5308 162.969 45.4656C162.969 45.4359 162.946 45.4122 162.937 45.3825C162.888 45.413 162.837 45.4398 162.786 45.4626C162.686 45.513 162.584 45.5604 162.48 45.599C162.376 45.6375 162.333 45.6582 162.253 45.682L162.052 45.7501L162.07 45.8035C162.154 45.7798 162.235 45.759 162.319 45.7294L162.342 46.097C162.437 46.097 162.525 46.0792 162.611 46.0792H162.733C162.91 46.0792 163.064 46.0792 163.186 46.0792C163.139 45.9458 163.089 45.8065 163.048 45.6731Z" fill="url(#paint1_linear_365_3732)"/>
<path d="M113.572 89.2152L112.213 90.0008C112.213 90.0008 103.357 135.043 103.357 138.683C103.357 142.323 122.136 162.58 122.136 162.58L125.066 136.688C125.066 136.688 120.858 77.3129 113.572 89.2152Z" fill="#E8F5FF"/>
<path d="M154.763 74.8879L146.917 69.5282C146.477 67.0755 145.698 64.7494 144.616 62.6655C143.468 60.4955 141.942 58.364 140.04 57.2524C135.233 54.4302 160.374 39.6168 160.374 39.6168C160.77 41.3963 161.236 43.1477 161.771 44.8639C163.066 49.0497 165.215 54.4628 167.985 56.0043C172.692 58.6279 154.763 74.8879 154.763 74.8879Z" fill="#FFC1C7"/>
<path opacity="0.1" d="M161.771 44.8639C160.697 49.8101 158.463 54.1895 155.385 57.3837C152.307 60.5779 148.54 62.4254 144.616 62.6654C143.468 60.4955 141.942 58.364 140.04 57.2524C135.233 54.4302 160.374 39.6168 160.374 39.6168C160.77 41.3963 161.236 43.1477 161.771 44.8639Z" fill="black"/>
<path d="M162.478 37.3847C162.479 42.2356 161.381 46.978 159.323 51.0119C157.265 55.0459 154.339 58.1902 150.916 60.0473C147.493 61.9043 143.726 62.3907 140.092 61.4448C136.458 60.4989 133.119 58.1633 130.499 54.7334C127.879 51.3035 126.094 46.9333 125.371 42.1755C124.648 37.4178 125.019 32.4863 126.438 28.0046C127.856 23.523 130.257 19.6926 133.338 16.9978C136.419 14.3031 140.041 12.8651 143.747 12.8657C146.21 12.8508 148.65 13.4748 150.928 14.7016C153.205 15.9285 155.275 17.734 157.016 20.0137C158.758 22.2934 160.137 25.0023 161.074 27.9838C162.012 30.9654 162.489 34.1605 162.478 37.3847Z" fill="#FFC1C7"/>
<path d="M165.181 71.7397L160.073 87.3446L155.567 97.7024H141.143L136.936 83.5412L138.641 68.8553H149.657L156.769 68.3306L159.172 67.2812L160.721 68.4314L165.181 71.7397Z" fill="#575A89"/>
<path opacity="0.1" d="M163.422 50.9382C163.422 50.9382 166.608 51.8275 163.755 54.8898C160.902 57.9521 151.058 67.6903 151.058 67.6903C151.058 67.6903 154.516 71.722 153.801 76.4443L165.256 68.0846L167.294 54.709C167.294 54.709 167.523 50.6892 163.422 50.9382Z" fill="black"/>
<path opacity="0.1" d="M153.311 67.6902L146.025 69.2644C146.025 69.2644 147.528 76.5421 146.776 78.6083C146.754 78.6725 146.735 78.739 146.72 78.807L143.747 89.3278L145.975 97.5897L153.687 83.8198L151.058 78.6083C151.058 78.6083 153.837 73.7881 155.49 72.1162C157.143 70.4442 153.311 67.6902 153.311 67.6902Z" fill="black"/>
<path d="M153.311 67.2842L146.025 68.8553C146.025 68.8553 147.528 76.1331 146.776 78.1993C146.754 78.2635 146.735 78.3299 146.72 78.3979L143.747 88.9188L145.975 97.1807L153.687 83.4019L151.058 78.1904C151.058 78.1904 153.837 73.3702 155.49 71.6982C157.143 70.0263 153.311 67.2842 153.311 67.2842Z" fill="#DCE6F2"/>
<path d="M163.728 50.1526C163.728 50.1526 166.914 51.0419 164.058 54.1042C161.203 57.1665 151.058 67.6903 151.058 67.6903C151.058 67.6903 154.815 70.9364 154.102 75.6558L165.557 67.299L167.595 53.9234C167.595 53.9234 167.822 49.9036 163.728 50.1526Z" fill="#575A89"/>
<path opacity="0.1" d="M145.117 63.5934C145.117 63.5934 145.812 65.295 148.88 68.3632C148.88 68.3632 143.772 71.9205 145.726 76.9216L137.911 74.2536L136.709 69.3355L145.117 63.5934Z" fill="black"/>
<path d="M144.816 63.2021C144.816 63.2021 145.511 64.9037 148.579 67.9719C148.579 67.9719 143.471 71.5115 145.425 76.5273L137.613 73.8593L136.41 68.9442L144.816 63.2021Z" fill="#575A89"/>
<path opacity="0.1" d="M165.181 71.7397L160.073 87.3446L155.576 97.7024H141.143L136.936 83.5412L138.638 68.8553H141.702C141.652 72.2822 142.608 76.308 142.547 77.805C142.443 80.2655 145.35 93.5403 145.35 93.5403C145.35 93.5403 151.434 80.6568 153.837 79.5096C155.347 78.7892 158.547 72.7951 160.718 68.4314L165.181 71.7397Z" fill="black"/>
<path d="M185.305 153.858L184.786 154.712C184.786 154.712 188.543 179.397 187.503 185.003C187.327 186.013 187.226 187.044 187.202 188.08V188.124C187.019 193.828 188.334 201.23 188.334 201.23C188.334 201.23 189.385 223.048 188.787 232.022H118.451C118.039 218.753 117.596 201.562 117.999 199.656C118.678 196.511 120.037 185.1 120.037 185.1L120.186 179.693C120.186 179.693 120.186 174.467 120.308 168.645C120.36 166.027 120.437 163.279 120.548 160.842C120.691 157.777 120.89 155.195 121.164 153.926C121.333 152.964 121.43 151.984 121.454 150.997C121.454 150.905 121.454 150.811 121.468 150.716C121.468 150.419 121.49 150.099 121.499 149.77C121.499 149.678 121.499 149.586 121.499 149.474C121.542 147.564 121.527 145.3 121.479 142.952C121.479 142.824 121.479 142.694 121.479 142.563C121.44 140.803 121.384 139.006 121.32 137.299C121.123 131.963 120.868 127.451 120.868 127.451L112.229 89.98L114.557 82.474L121.017 77.2921L132.962 67.8503C138.788 61.5805 142.624 62.3335 144.086 63.0212C144.228 63.0847 144.368 63.1589 144.503 63.2435C144.548 63.2732 144.585 63.2969 144.619 63.3236C144.665 63.3524 144.71 63.3861 144.752 63.4244C144.352 63.6766 144.004 64.0519 143.738 64.5182C143.438 65.0489 143.225 65.6542 143.11 66.2969C143.034 66.6953 142.98 67.1006 142.95 67.5094C142.92 67.9392 142.909 68.3839 142.909 68.8315C142.925 69.8132 142.989 70.7925 143.101 71.7634C143.101 71.7812 143.101 71.8049 143.101 71.8286C143.176 72.5223 143.269 73.2011 143.36 73.8385C143.359 73.8493 143.359 73.8603 143.36 73.8711C143.464 74.6152 143.568 75.3029 143.638 75.8958C143.652 76.0025 143.663 76.1004 143.674 76.1923C143.724 76.5841 143.748 76.9809 143.745 77.3781C143.77 78.3371 143.869 79.2905 144.039 80.2239C144.098 80.6152 144.166 81.0332 144.24 81.469C144.342 82.0619 144.453 82.7081 144.573 83.3663C144.639 83.7279 144.709 84.1014 144.782 84.472C144.809 84.6202 144.838 84.7684 144.865 84.9196L144.911 85.1538C145.393 87.6647 145.916 90.1637 146.238 91.6756C146.428 92.565 146.548 93.1134 146.548 93.1134C146.548 93.1134 149.958 85.8949 152.68 81.7862C152.72 81.7269 152.757 81.6706 152.795 81.6172C153.065 81.2111 153.33 80.8405 153.583 80.5145C154.138 79.7911 154.636 79.2753 155.037 79.0856C155.122 79.0446 155.205 78.994 155.284 78.9344C156.398 78.1073 158.196 75.1043 159.878 71.959C160.043 71.6626 160.204 71.3395 160.367 71.0341C160.741 70.3286 161.103 69.6201 161.445 68.9412C161.708 68.4224 161.959 67.9185 162.197 67.4382C163.329 65.1319 164.126 63.4125 164.126 63.4125L165.698 63.3206L165.972 63.3028H166.155L173.29 62.87C173.29 62.87 173.598 62.9382 174.105 63.0716C174.132 63.0716 174.16 63.0716 174.189 63.0953C176.721 63.7534 183.754 65.8374 184.184 68.7278C184.709 72.2673 196.054 76.9897 196.054 76.9897C196.203 79.3613 198.982 80.9235 198.982 80.9235C198.982 80.9235 203.189 95.479 202.063 101.183C200.952 106.815 204.957 120.748 205.064 121.139L204.296 122.408L185.305 153.858Z" fill="#E8F5FF"/>
<path opacity="0.1" d="M163.42 49.9035C163.42 49.9035 170.364 47.3244 171.943 52.6338C173.521 57.9431 177.051 79.385 177.051 79.385C177.051 79.385 167.885 81.6469 165.482 79.385C164.073 78.0426 162.329 77.4455 160.598 77.713L155.415 82.3346L153.884 81.7417C153.884 81.7417 162.176 65.6032 163.979 60.119C165.781 54.6348 166.39 52.1832 163.42 49.9035Z" fill="black"/>
<path d="M163.118 48.7178C163.118 48.7178 170.068 46.1387 171.653 51.448C173.238 56.7574 176.761 78.1993 176.761 78.1993C176.761 78.1993 167.597 80.4611 165.193 78.1993C163.784 76.8568 162.041 76.2597 160.311 76.5273L155.123 81.1489L153.592 80.556C153.592 80.556 161.884 64.4175 163.687 58.9333C165.489 53.449 166.089 51.0034 163.118 48.7178Z" fill="#E8F5FF"/>
<path opacity="0.1" d="M116.502 134.257C116.502 134.257 121.685 135.929 122.663 139.765C123.641 143.601 118.832 143.699 118.832 143.699C118.832 143.699 115.902 136.913 116.502 134.257Z" fill="black"/>
<path opacity="0.1" d="M135.808 162.58C135.808 162.58 123.114 196.609 126.044 199.855C128.974 203.101 135.808 162.58 135.808 162.58Z" fill="black"/>
<path opacity="0.1" d="M153.311 137.503C153.311 137.503 163.454 170.557 161.425 175.662C159.396 180.766 165.781 175.662 165.781 175.662L153.311 137.503Z" fill="black"/>
<path d="M167.434 170.154C167.434 170.154 133.179 172.318 143.172 186.283C153.164 200.249 173.67 186.876 173.67 186.876L167.434 170.154Z" fill="#FFC1C7"/>
<path opacity="0.1" d="M162.478 37.3847C162.481 40.6012 161.998 43.7868 161.058 46.7583C160.743 46.8057 160.428 46.8354 160.125 46.8532C159.672 45.5518 159.914 44.0488 159.923 42.617C159.933 41.1851 159.529 39.5013 158.477 39.1159C156.377 38.3422 154.928 43.4796 152.859 42.5517C151.274 41.8462 151.688 38.698 150.775 36.8807C150.053 35.443 148.606 35.0368 147.481 34.1357C145.087 32.2117 145.16 29.1346 144.048 26.2235C142.884 23.1731 140.425 24.0743 138.29 25.8737C136.668 27.2433 135.269 29.0783 133.534 30.1692C132.033 31.1178 130.346 31.4617 128.682 31.5121C127.657 31.5641 126.632 31.4223 125.639 31.0912C126.807 25.3383 129.535 20.3384 133.312 17.0238C137.089 13.7093 141.658 12.3064 146.166 13.0767C150.675 13.847 154.816 16.738 157.817 21.2106C160.818 25.6831 162.473 31.4318 162.475 37.3847H162.478Z" fill="black"/>
<path d="M138.296 25.0882C136.673 26.4577 135.276 28.2898 133.541 29.3866C132.04 30.3323 130.353 30.6762 128.689 30.7265C126.651 30.7858 124.457 30.3175 123.064 28.3906C121.785 26.6119 121.479 23.8757 122.02 21.5427C122.561 19.2096 123.859 17.2739 125.383 15.8717C126.907 14.4695 128.675 13.5001 129.685 11.4932C130.219 10.4319 130.478 9.1809 130.921 8.05144C132.341 4.43777 135.534 2.48123 138.62 2.23815C141.707 1.99506 144.766 3.19863 147.705 4.50299C150.644 5.80735 153.606 7.24215 156.708 7.51191C158.089 7.62456 159.525 7.51191 160.806 8.1967C162.53 9.11272 163.66 11.3034 164.429 13.5327C165.292 16.0466 165.829 18.7917 165.738 21.5367C165.548 27.3975 162.591 33.1485 163.891 38.7632C164.235 40.2602 164.88 41.7958 164.536 43.2929C164.033 45.4777 161.88 45.9757 160.138 46.0795C159.686 44.7781 159.928 43.2721 159.937 41.8433C159.946 40.4144 159.543 38.7276 158.492 38.3422C156.391 37.5744 154.942 42.7029 152.877 41.778C151.303 41.0695 151.71 37.9242 150.796 36.107C150.073 34.6663 148.624 34.2631 147.501 33.3619C145.108 31.438 145.18 28.3609 144.068 25.4498C142.895 22.3846 140.434 23.2858 138.296 25.0882Z" fill="#99607E"/>
<path d="M105.08 137.894L103.353 138.683C103.353 138.683 104.032 152.059 101.768 155.895C99.5032 159.731 109.204 169.267 109.204 169.267C109.204 169.267 122.5 169.169 122.876 167.785C123.252 166.401 122.197 143.002 122.197 143.002C122.197 143.002 115.059 139.362 115.659 133.56C115.659 133.56 113.481 147.23 110.252 146.64C107.023 146.05 103.357 142.519 105.08 137.894Z" fill="#E8F5FF"/>
<path opacity="0.1" d="M110.843 150.778C113.361 150.778 115.401 148.335 115.401 145.321C115.401 142.306 113.361 139.863 110.843 139.863C108.326 139.863 106.285 142.306 106.285 145.321C106.285 148.335 108.326 150.778 110.843 150.778Z" fill="black"/>
<path d="M115.827 138.289C115.827 138.289 114.921 102.099 107.037 110.162C99.1523 118.225 99.0753 127.869 100.577 130.718C102.078 133.566 106.892 147.828 106.892 147.828C107.645 148.4 108.491 148.729 109.36 148.79C110.229 148.851 111.097 148.642 111.892 148.179C112.687 147.716 113.387 147.013 113.935 146.128C114.483 145.243 114.863 144.2 115.044 143.085L115.827 138.289Z" fill="#FFC1C7"/>
<path opacity="0.1" d="M165.011 46.619C164.975 46.46 164.904 46.318 164.808 46.2099C164.418 45.7445 163.58 45.5814 162.317 45.7237L162.369 46.5063C164.054 46.3166 164.386 46.7554 164.429 46.8295V46.9036L164.482 47.0014C164.692 47.371 164.84 47.7939 164.918 48.2432C164.996 48.6924 165.002 49.158 164.934 49.6101C164.565 52.0262 162.299 53.9501 162.276 53.9708L162.222 54.0123L162.188 54.0805C161.21 55.9807 155.678 61.3434 154.231 62.7308L154.104 62.5411C153.456 63.2763 147.764 69.801 147.456 72.3C147.256 73.8682 145.907 74.476 145.418 74.6449C144.902 74.1321 143.226 72.386 142.354 70.4295C141.537 68.5886 144.827 64.9956 145.117 63.5934L144.664 62.9857C144.616 63.211 140.391 68.381 141.566 71.0224C142.508 73.142 144.229 74.9562 144.831 75.555C144.639 77.8436 143.441 91.2815 141.6 94.4653C139.313 98.4228 137.391 118.368 137.603 125.331C137.791 131.518 136.557 143.204 132.436 148.223C131.723 149.13 130.862 149.814 129.918 150.225C128.974 150.635 127.972 150.762 126.986 150.594H126.936H126.886C126.827 150.594 120.849 151.395 115.827 145.851C111.717 141.324 109.389 133.937 108.905 123.887H108.805L108.764 120.962C109.879 120.734 110.882 119.95 111.564 118.774C112.246 117.597 112.553 116.121 112.421 114.655C112.289 113.189 111.728 111.846 110.856 110.91C109.984 109.974 108.868 109.517 107.744 109.635C106.62 109.753 105.574 110.437 104.827 111.543C104.08 112.649 103.689 114.091 103.737 115.566C103.785 117.041 104.268 118.435 105.084 119.453C105.901 120.472 106.987 121.037 108.115 121.03H108.164L108.205 123.938L108.006 123.956C108.504 134.331 110.95 142.006 115.252 146.746C118.522 150.294 122.699 152.083 126.938 151.753C127.239 151.796 127.541 151.818 127.844 151.819C129.787 151.832 131.657 150.847 133.052 149.076C137.393 143.785 138.713 131.669 138.507 125.272C138.281 117.893 140.298 98.6659 142.322 95.1649C144.306 91.7291 145.508 78.3416 145.719 75.7477C146.437 75.4839 148.06 74.6509 148.337 72.4868C148.536 70.9216 152.338 66.0984 154.677 63.4274L154.607 63.3207C155.866 62.1172 159.781 58.3226 161.721 55.8859C162.324 55.1299 162.921 54.374 163.546 53.6536C164.298 52.7821 165.254 51.3977 165.505 49.7613C165.591 49.2211 165.591 48.6637 165.506 48.1234C165.421 47.583 165.253 47.071 165.011 46.619Z" fill="black"/>
<path d="M144.754 75.3682C144.659 75.2823 142.404 73.1686 141.274 70.6251C140.101 67.9838 144.326 62.8167 144.372 62.5914L144.825 63.1991C144.537 64.5984 141.247 68.1943 142.064 70.0322C143.095 72.3534 145.264 74.384 145.287 74.4048L144.754 75.3682Z" fill="#353146"/>
<path d="M153.936 63.3058L153.583 62.6685C153.656 62.6003 160.768 55.865 161.889 53.6862L161.925 53.6209L161.977 53.5765C162 53.5557 164.267 51.6348 164.636 49.2158C164.704 48.7641 164.699 48.2988 164.621 47.8499C164.543 47.4011 164.393 46.9786 164.183 46.61L164.131 46.5092V46.4381C164.085 46.361 163.753 45.9252 162.068 46.115L162.016 45.3294C163.282 45.1871 164.117 45.3501 164.507 45.8155C164.604 45.9248 164.675 46.0676 164.713 46.2276C164.958 46.6783 165.129 47.1899 165.217 47.7309C165.305 48.2718 165.308 48.8307 165.224 49.3729C164.973 51.0122 164.02 52.3966 163.266 53.2652C162.643 53.9856 162.043 54.7474 161.443 55.4974C159.167 58.3522 154.186 63.0716 153.936 63.3058Z" fill="#E8F5FF"/>
<path d="M108.472 119.929L107.872 119.944L107.939 124.719L108.539 124.704L108.472 119.929Z" fill="#E8F5FF"/>
<path d="M107.822 120.653C110.242 120.653 112.204 118.085 112.204 114.917C112.204 111.749 110.242 109.181 107.822 109.181C105.403 109.181 103.441 111.749 103.441 114.917C103.441 118.085 105.403 120.653 107.822 120.653Z" fill="#006D77"/>
<path d="M107.822 119.681C109.832 119.681 111.461 117.548 111.461 114.917C111.461 112.286 109.832 110.153 107.822 110.153C105.813 110.153 104.184 112.286 104.184 114.917C104.184 117.548 105.813 119.681 107.822 119.681Z" fill="#E8F5FF"/>
<path d="M127.559 151.436C127.256 151.437 126.954 151.416 126.653 151.374C122.414 151.701 118.238 149.911 114.967 146.367C110.664 141.624 108.223 133.958 107.721 123.573L108.626 123.499C109.111 133.549 111.439 140.939 115.551 145.463C120.573 150.991 126.549 150.206 126.608 150.206H126.658H126.707C127.694 150.372 128.696 150.246 129.64 149.835C130.584 149.424 131.446 148.741 132.16 147.834C136.279 142.815 137.513 131.13 137.325 124.943C137.099 117.973 139.021 98.0285 141.31 94.0739C143.314 90.6085 144.557 74.9888 144.571 74.8317L144.605 74.387L144.94 74.3099C144.96 74.3099 146.917 73.8237 147.161 71.9087C147.478 69.4126 153.162 62.8879 153.807 62.1497L154.398 63.0391C152.05 65.7071 148.248 70.5332 148.058 72.1014C147.782 74.2714 146.158 75.1014 145.443 75.3623C145.216 77.9592 144.023 91.3437 142.046 94.7795C140.022 98.2805 138.004 117.508 138.231 124.886C138.425 131.284 137.119 143.402 132.778 148.691C131.38 150.466 129.506 151.452 127.559 151.436Z" fill="#353146"/>
<g opacity="0.1">
<path opacity="0.1" d="M164.407 30.3767C164.778 28.5803 165.227 26.772 165.539 24.9518C165.166 26.7809 164.715 28.5803 164.407 30.3767Z" fill="black"/>
<path opacity="0.1" d="M160.619 44.4935C160.166 43.1921 160.408 41.6861 160.417 40.2573C160.426 38.8284 160.023 37.1565 158.972 36.7563C156.871 35.9885 155.422 41.1199 153.357 40.1921C151.772 39.4836 152.191 36.3383 151.276 34.5211C150.553 33.0803 149.106 32.6772 147.983 31.776C145.588 29.852 145.66 26.7749 144.551 23.8639C143.384 20.8105 140.928 21.7117 138.79 23.514C137.166 24.8836 135.769 26.7186 134.035 27.8125C132.534 28.7582 130.847 29.102 129.182 29.1524C127.156 29.2147 124.95 28.7433 123.558 26.8164C122.484 25.3342 122.097 23.1613 122.319 21.1247C122.28 21.264 122.246 21.4034 122.213 21.5427C121.669 23.8757 121.986 26.6178 123.256 28.3906C124.649 30.3175 126.854 30.7859 128.881 30.7266C130.548 30.6762 132.232 30.3323 133.736 29.3866C135.475 28.2898 136.872 26.4577 138.491 25.0882C140.629 23.2858 143.088 22.3846 144.252 25.438C145.361 28.3491 145.291 31.4262 147.684 33.3501C148.817 34.2394 150.255 34.6545 150.979 36.0952C151.885 37.9183 151.484 41.0577 153.06 41.7662C155.123 42.6911 156.572 37.5626 158.673 38.3304C159.724 38.7158 160.129 40.4055 160.118 41.8314C160.107 43.2573 159.871 44.7662 160.32 46.0676C162.061 45.9639 164.214 45.4747 164.719 43.281C164.789 42.9662 164.821 42.6392 164.814 42.3116C164.078 43.9747 162.185 44.4016 160.619 44.4935Z" fill="black"/>
</g>
<path opacity="0.1" d="M201.543 117.538L204.171 121.178C204.171 121.178 206.275 141.238 207.326 143.115C208.376 144.991 210.858 152.456 208.528 158.062C208.528 158.062 207.776 161.112 208.227 162.39C208.678 163.668 204.848 170.062 204.848 170.062C204.848 170.062 199.815 175.961 198.762 176.847C197.709 177.734 192.152 184.813 190.275 184.911C188.398 185.009 187.784 188.059 187.784 188.059L177.191 188.551C177.191 188.551 171.34 188.151 170.068 189.233C170.068 189.233 170.747 177.529 164.21 169.857L172.547 165.923C172.547 165.923 175.704 164.145 176.68 162.286C177.294 161.147 178.165 160.287 179.171 159.829C179.171 159.829 181.498 157.664 181.573 156.485C181.648 155.305 184.419 153.858 184.419 153.858L182.85 136.323L183.677 107.212C183.677 107.212 186.306 82.8209 191.865 84.1994C197.424 85.5778 201.543 117.538 201.543 117.538Z" fill="black"/>
<path d="M202.448 117.538L205.077 121.178C205.077 121.178 207.181 141.238 208.232 143.115C209.282 144.991 211.764 152.456 209.434 158.062C209.434 158.062 208.684 161.112 209.135 162.39C209.586 163.668 205.754 170.062 205.754 170.062C205.754 170.062 200.721 175.961 199.668 176.847C198.615 177.734 193.058 184.813 191.181 184.911C189.304 185.009 188.69 188.059 188.69 188.059L178.097 188.551C178.097 188.551 172.242 188.151 170.974 189.233C170.974 189.233 171.653 177.529 165.116 169.857L173.453 165.923C173.453 165.923 176.61 164.145 177.585 162.286C178.199 161.147 179.07 160.287 180.076 159.829C180.076 159.829 182.404 157.664 182.479 156.485C182.554 155.305 185.325 153.858 185.325 153.858L183.756 136.323L184.582 107.212C184.582 107.212 187.211 82.8209 192.77 84.1994C198.329 85.5778 202.448 117.538 202.448 117.538Z" fill="#E8F5FF"/>
<path opacity="0.1" d="M192.675 146.945C192.675 146.945 200.413 144.277 202.442 147.538C204.47 150.799 192.675 146.945 192.675 146.945Z" fill="black"/>
<path opacity="0.1" d="M190.873 151.418C193.502 153.829 201.615 153.926 201.615 153.926L190.873 151.418Z" fill="black"/>
<path opacity="0.1" d="M194.854 163.466C195.08 163.564 200.431 171.04 202.677 168.778C204.923 166.516 194.854 163.466 194.854 163.466Z" fill="black"/>
<path opacity="0.1" d="M122.792 100.72C122.792 100.72 124.364 114.884 123.589 120.653C122.815 126.422 125.641 133.569 125.641 133.569L122.792 100.72Z" fill="black"/>
<path d="M88.0025 106.48C86.191 108.339 84.8686 112.738 83.9108 117.573C82.2397 126.007 81.6939 135.787 81.6939 135.787C81.6939 135.787 67.2699 131.459 68.3206 129.493C68.9818 128.257 68.0941 118.943 67.3537 112.19C66.9121 108.2 66.5181 105.102 66.5181 105.102C66.5181 105.102 92.9614 101.364 88.0025 106.48Z" fill="#FFCCD0"/>
<path opacity="0.1" d="M88.0025 106.086C86.191 107.948 84.8686 112.344 83.9108 117.179C81.0369 118.321 77.9805 118.424 75.0656 117.477C72.1507 116.53 69.4859 114.568 67.3537 111.798C66.9121 107.805 66.5181 104.707 66.5181 104.707C66.5181 104.707 92.9614 100.972 88.0025 106.086Z" fill="black"/>
<path d="M95.7557 95.4909C95.7572 100.647 94.3653 105.638 91.8264 109.579C89.2876 113.521 85.7654 116.16 81.8832 117.029C78.0011 117.898 74.0093 116.941 70.6144 114.327C67.2195 111.713 64.6403 107.611 63.3333 102.747C62.0264 97.8834 62.0759 92.571 63.4732 87.7502C64.8704 82.9295 67.5253 78.9113 70.9679 76.4068C74.4106 73.9023 78.419 73.073 82.2838 74.0657C86.1486 75.0583 89.6205 77.8089 92.0851 81.8307C94.4602 85.7047 95.755 90.5234 95.7557 95.4909Z" fill="#FFCCD0"/>
<path opacity="0.1" d="M108.907 232.022H104.152L103.751 221.027L103.332 209.646C103.332 209.646 104.412 209.436 106.133 209.121L106.828 209H106.885C107.261 211.309 107.632 213.681 107.99 216.049C108.586 220.254 108.895 224.52 108.916 228.797C108.916 229.093 108.916 229.389 108.916 229.668C108.93 230.46 108.916 231.251 108.907 232.022Z" fill="black"/>
<path d="M107.995 232.022H48.3601C48.6182 231.254 48.7903 230.789 48.7903 230.789C48.7903 230.789 53.5614 203.462 55.9865 191.901C55.9872 191.891 55.9872 191.881 55.9865 191.871C56.2895 190.301 56.6553 188.752 57.0825 187.232C57.1101 187.129 57.1457 187.029 57.1889 186.935C58.389 184.38 59.8925 181.626 57.7889 177.692C55.6853 173.758 56.4303 156.449 56.4303 156.449C56.4303 156.449 58.9845 141.695 61.6882 133.827C62.0985 132.609 62.6808 131.502 63.4046 130.566C63.6399 130.265 63.8911 129.986 64.1564 129.73C64.358 129.532 64.5682 129.349 64.7858 129.182L64.8289 129.146C65.9646 128.303 67.2258 127.791 68.5266 127.643C69.4506 127.517 70.3832 127.551 71.3004 127.744C75.6843 128.586 79.194 129.994 81.9837 131.598C89.5445 135.947 91.8338 141.775 91.879 141.896L91.8972 141.947C92.2006 142.875 96.6387 156.44 98.2374 162.769C98.6518 164.417 98.8782 165.577 98.7876 165.894C98.3348 167.465 102.243 187.134 102.243 187.134C102.243 187.134 104.055 196.62 105.866 207.74C105.945 208.202 106.02 208.665 106.092 209.133C106.416 211.152 106.738 213.209 107.048 215.264C107.649 219.498 107.959 223.793 107.974 228.1C108.007 229.442 108.014 230.749 107.995 232.022Z" fill="#FF748E"/>
<path opacity="0.1" d="M68.1711 120.879C68.1711 120.879 64.0567 118.804 64.1065 121.952C64.1563 125.1 65.1096 126.606 64.8085 127.065C64.5073 127.525 64.9579 130.279 64.9579 130.279C64.9579 130.279 70.517 130.279 73.0712 131.785C75.6254 133.291 85.0407 136.309 86.243 137.228C87.4454 138.147 91.904 142.267 91.904 142.267L92.3048 134.465C92.3048 134.465 87.6968 129.481 80.136 126.926C72.5753 124.371 68.1711 120.879 68.1711 120.879Z" fill="black"/>
<path d="M68.1711 120.484C68.1711 120.484 64.0567 118.409 64.1065 121.557C64.1563 124.706 65.1096 126.212 64.8085 126.671C64.5073 127.131 64.9579 129.885 64.9579 129.885C64.9579 129.885 70.517 129.885 73.0712 131.393C75.6254 132.902 85.0407 135.917 86.243 136.833C87.4454 137.749 91.904 141.873 91.904 141.873L92.3093 134.094C92.3093 134.094 87.7013 129.111 80.1405 126.555C72.5798 124 68.1711 120.484 68.1711 120.484Z" fill="#FF748E"/>
<path opacity="0.1" d="M80.5912 139.261C80.5912 139.261 88.4531 150.404 88.0523 153.49C87.6515 156.576 80.5912 139.261 80.5912 139.261Z" fill="black"/>
<path opacity="0.1" d="M67.8201 179.516C67.8201 179.516 62.0573 186.467 60.359 186.861C58.6608 187.256 61.6611 188.566 63.6129 187.52C65.5648 186.473 69.7267 183.719 69.7267 183.719L67.8201 179.516Z" fill="black"/>
<path d="M110.336 232.022H96.8969C95.0175 229.887 93.2399 227.91 92.1078 226.721C90.2963 224.818 88.9897 222.017 88.1564 219.764C87.9685 219.251 87.8055 218.771 87.6673 218.335C87.42 217.584 87.2023 216.817 87.0152 216.037L96.9671 208.3C97.5171 208.912 98.0339 209.574 98.5137 210.28L98.6337 210.461C99.1862 211.315 99.673 212.284 99.716 213.079C99.7659 214.004 101.731 217.582 103.74 221.018C105.778 224.513 107.866 227.854 108.004 228.079C108.004 228.079 108.348 228.693 108.909 229.635C109.306 230.317 109.795 231.135 110.336 232.022Z" fill="#FFCCD0"/>
<path opacity="0.1" d="M92.0851 81.8307C91.6073 83.2418 91.1794 84.7063 91.116 86.2774C90.9371 90.813 91.2269 100.954 87.3911 103.231C85.4913 104.352 83.4579 101.891 81.3746 101.832C79.8756 101.79 78.5012 103.035 77.5864 104.592C76.6715 106.148 76.1032 107.995 75.4397 109.756C74.8358 111.354 74.1401 112.89 73.3588 114.351C73.1252 114.798 72.868 115.223 72.5889 115.623C70.2499 114.33 68.1671 112.356 66.4992 109.851C64.8312 107.345 63.6222 104.374 62.9641 101.164C62.306 97.9546 62.2163 94.5903 62.7018 91.3281C63.1873 88.0659 64.2352 84.9918 65.7657 82.3401C67.2961 79.6884 69.2687 77.5291 71.5331 76.0266C73.7976 74.5242 76.2941 73.7182 78.8325 73.6702C81.3709 73.6223 83.8842 74.3335 86.1808 75.7497C88.4774 77.166 90.4968 79.2499 92.0851 81.8426V81.8307Z" fill="black"/>
<path d="M90.8149 85.4771C90.6338 90.0127 90.9259 100.154 87.0878 102.428C85.188 103.548 83.1546 101.091 81.0713 101.032C79.5723 100.987 78.2001 102.235 77.283 103.788C76.366 105.342 75.8022 107.192 75.1364 108.956C74.5323 110.554 73.8367 112.09 73.0555 113.55C72.589 114.416 72.0727 115.285 71.3549 115.771C70.105 116.625 68.5901 116.144 67.2496 115.596C65.5106 114.879 63.7972 114.07 62.1095 113.171C62.1482 112.837 62.1679 112.5 62.1684 112.163C62.1186 112.288 62.0642 112.403 62.0099 112.528L61.9034 112.771C61.711 113.215 61.523 113.66 61.3509 114.117C61.2853 114.292 61.2219 114.472 61.1653 114.653C60.9375 115.326 60.7945 116.043 60.7418 116.776C60.6263 118.753 61.3713 120.63 62.0325 122.408C64.5754 129.289 66.1469 137.334 64.2335 144.553C63.4047 147.692 61.9691 150.482 60.9207 153.514C59.088 158.886 58.5485 164.86 59.3741 170.643C59.8972 174.236 60.9456 177.793 60.6875 181.436C60.2346 187.706 56.1044 192.372 51.9674 195.58C49.7324 197.305 46.9971 198.841 44.624 197.477C46.1366 195.165 46.5261 191.966 46.8522 188.948C47.7443 180.717 48.6388 172.482 49.5354 164.243C49.8932 160.964 50.2502 157.685 50.6065 154.407C51.2722 148.246 51.947 142.018 51.5304 135.819C51.2269 131.251 50.371 126.401 51.8836 122.266C52.6829 120.075 54.1072 118.261 54.551 115.901C54.9156 113.983 54.5759 111.944 54.816 109.99C54.9473 109.101 55.1697 108.24 55.4772 107.429C55.8686 106.328 56.3796 105.308 56.9943 104.399C56.3874 104.168 55.8213 103.851 55.4772 103.187C56.4508 102.357 56.598 100.486 56.1565 99.0809C55.7149 97.6758 54.8318 96.6056 54.037 95.4969C53.2422 94.3882 52.4769 93.0957 52.3772 91.5838C52.1848 88.7054 54.3812 86.4761 54.7684 83.6361C55.1601 80.7458 53.6113 77.9355 53.7359 75.0096C53.8808 71.473 56.3625 68.9028 58.8126 67.4117C62.5098 65.171 66.594 64.2505 70.6507 64.7437C73.9522 65.1528 77.1472 66.4897 80.4396 67.0085C82.4254 67.305 84.4385 67.3346 86.4107 67.7911C88.383 68.2476 90.3598 69.2111 91.7478 71.1054C95.4071 76.1005 91.0233 80.2122 90.8149 85.4771Z" fill="#FFE0D0"/>
<path opacity="0.1" d="M87.7534 219.767C86.5985 219.112 84.4972 219.503 80.8901 218.065C77.2829 216.627 76.5878 210.129 76.5878 210.129V210.109C76.5447 209.96 76.2096 208.994 73.9407 205.609C71.4341 201.87 66.0154 182.99 66.0154 182.99C66.0154 182.99 61.2104 176.234 61.3621 173.744C61.5138 171.253 60.5085 164.628 60.6081 157.217C60.7077 149.806 71.425 144.891 71.425 144.891C92.0602 140.103 87.2009 171.248 86.6506 173.607C86.1004 175.967 88.9557 182.341 88.9557 182.341C88.5527 185.115 90.6087 189.411 90.6087 189.411C90.6087 189.411 91.1069 193.211 91.2088 194.655C91.2144 194.722 91.2258 194.787 91.2428 194.851C91.5734 196.211 94.268 197.444 95.3639 198.194C96.5165 198.983 100.223 205.866 100.223 205.866C101.023 210.921 88.9037 220.431 87.7534 219.767Z" fill="black"/>
<path d="M88.3534 218.581C87.2009 217.923 85.0973 218.317 81.4924 216.876C77.8875 215.436 77.1901 208.944 77.1901 208.944V208.923C77.1493 208.772 76.8119 207.808 74.543 204.423C72.0364 200.685 66.6177 181.801 66.6177 181.801C66.6177 181.801 61.8127 175.048 61.9622 172.558C62.1116 170.068 61.1108 163.442 61.2104 156.037C61.3101 148.632 72.0205 143.72 72.0205 143.72C92.6557 138.932 87.7964 170.077 87.2462 172.436C86.6959 174.796 89.5513 181.17 89.5513 181.17C89.1482 183.944 91.2043 188.24 91.2043 188.24C91.2043 188.24 91.7024 192.04 91.8066 193.484C91.8104 193.551 91.8211 193.617 91.8383 193.68C92.1689 195.04 94.8635 196.274 95.9617 197.024C97.112 197.809 100.821 204.696 100.821 204.696C101.625 209.741 89.506 219.251 88.3534 218.581Z" fill="#FF748E"/>
<path opacity="0.1" d="M72.4282 159.98C72.4282 159.98 81.4426 172.43 83.7953 172.43C86.148 172.43 72.4282 159.98 72.4282 159.98Z" fill="black"/>
<path d="M88.3534 218.581C87.2009 217.923 85.0972 218.317 81.4924 216.876C77.8875 215.436 77.1901 208.944 77.1901 208.944V208.923C79.579 206.848 85.6294 200.987 88.0138 198.844C89.6917 197.341 91.0616 195.132 91.8632 193.668C92.1938 195.028 94.8884 196.262 95.9866 197.012C97.1369 197.797 100.846 204.684 100.846 204.684C101.625 209.741 89.506 219.251 88.3534 218.581Z" fill="#FF748E"/>
<g opacity="0.1">
<path opacity="0.1" d="M55.4907 103.219C55.502 103.243 55.5179 103.264 55.5315 103.287C55.5994 103.175 55.6696 103.062 55.7421 102.955C55.6649 103.054 55.5807 103.142 55.4907 103.219Z" fill="black"/>
<path opacity="0.1" d="M60.7441 116.808C60.8392 115.163 61.5117 113.713 62.1412 112.267C61.7291 112.059 61.317 111.849 60.9094 111.629C60.9482 111.297 60.9679 110.961 60.9682 110.624C60.332 112.107 59.6391 113.565 59.5417 115.234C59.4262 117.214 60.1712 119.088 60.8324 120.867C63.3775 127.744 64.9467 135.79 63.0334 143.011C62.2023 146.148 60.769 148.94 59.7206 151.973C57.8886 157.343 57.3499 163.317 58.1763 169.098C58.6948 172.694 59.7455 176.249 59.4873 179.892C59.0345 186.162 54.9065 190.828 50.7673 194.032C49.0758 195.343 47.099 196.543 45.2082 196.457C45.0332 196.826 44.838 197.178 44.624 197.51C46.9993 198.882 49.7324 197.338 51.9674 195.606C56.1089 192.405 60.2459 187.751 60.6988 181.469C60.9569 177.826 59.9063 174.271 59.3855 170.675C58.5588 164.895 59.0958 158.921 60.9252 153.55C61.9668 150.52 63.416 147.725 64.238 144.588C66.1514 137.367 64.5799 129.321 62.037 122.444C61.3781 120.653 60.6286 118.789 60.7441 116.808Z" fill="black"/>
<path opacity="0.1" d="M91.7433 71.1409C91.5206 70.8417 91.2814 70.5643 91.0278 70.3109C93.7722 74.971 89.8096 78.9315 89.6126 83.9473C89.4359 88.483 89.7258 98.6273 85.8877 100.898C83.9901 102.022 81.9544 99.5611 79.8735 99.5018C78.3722 99.4603 77 100.708 76.0829 102.262C75.1659 103.815 74.602 105.665 73.9386 107.426C73.3333 109.024 72.6369 110.56 71.8553 112.021C71.4025 112.889 70.8726 113.755 70.1525 114.244C68.9071 115.095 67.3923 114.618 66.0495 114.066C64.7437 113.529 63.45 112.936 62.1684 112.288C62.1657 112.596 62.1461 112.904 62.1095 113.209C63.7987 114.111 65.5128 114.919 67.2519 115.634C68.5924 116.186 70.1073 116.663 71.3549 115.812C72.0727 115.323 72.5935 114.455 73.0577 113.586C73.8399 112.127 74.5356 110.592 75.1387 108.994C75.8044 107.233 76.366 105.38 77.2853 103.827C78.2046 102.274 79.5746 101.029 81.0736 101.07C83.1568 101.129 85.1925 103.59 87.09 102.466C90.9282 100.196 90.636 90.0512 90.8149 85.5155C91.0233 80.2418 95.4071 76.133 91.7433 71.1409Z" fill="black"/>
</g>
<path opacity="0.1" d="M61.9055 112.774C61.713 113.218 61.5251 113.663 61.353 114.12C61.2874 114.294 61.224 114.475 61.1673 114.656C59.9808 113.091 57.0915 109.37 55.4792 108.217C55.8712 107.117 56.3822 106.097 56.9964 105.188C56.9964 105.188 60.839 107.847 61.9055 112.774Z" fill="black"/>
<path d="M62.0119 112.531C61.122 107.257 56.9964 104.402 56.9964 104.402C56.3817 105.311 55.8707 106.331 55.4792 107.432C57.1798 108.65 60.3137 112.735 61.353 114.12L62.0119 112.531Z" fill="#FF748E"/>
</g>
<defs>
<linearGradient id="paint0_linear_365_3732" x1="165.306" y1="28.2838" x2="165.306" y2="22.8351" gradientUnits="userSpaceOnUse">
<stop stop-color="#808080" stop-opacity="0.25"/>
<stop offset="0.54" stop-color="#808080" stop-opacity="0.12"/>
<stop offset="1" stop-color="#808080" stop-opacity="0.1"/>
</linearGradient>
<linearGradient id="paint1_linear_365_3732" x1="103883" y1="195211" x2="103883" y2="13610.5" gradientUnits="userSpaceOnUse">
<stop stop-color="#808080" stop-opacity="0.25"/>
<stop offset="0.54" stop-color="#808080" stop-opacity="0.12"/>
<stop offset="1" stop-color="#808080" stop-opacity="0.1"/>
</linearGradient>
<clipPath id="clip0_365_3732">
<rect width="245.94" height="232.019" fill="white"/>
</clipPath>
</defs>
</svg>
